<svg width="26" height="27" viewBox="0 0 26 27" fill="none" xmlns="http://www.w3.org/2000/svg"><path d="M13.335 18.65c2.915 0 5.277-2.47 5.277-5.517 0-3.046-2.362-5.516-5.277-5.516-2.914 0-5.277 2.47-5.277 5.516 0 3.047 2.363 5.517 5.277 5.517z" fill="#BC9E5F"/><path d="M19.627.12c-3.145-.09-9.44-.09-12.584 0-1.636.047-3.491.473-4.657 1.775C1.174 3.248.716 4.883.67 6.712c-.082 3.21 0 12.845 0 12.845.053 1.829.504 3.464 1.716 4.817 1.166 1.302 3.02 1.728 4.657 1.775 3.145.09 9.439.09 12.584 0 1.636-.047 3.491-.473 4.657-1.775 1.212-1.353 1.67-2.988 1.716-4.817V6.712c-.046-1.829-.504-3.464-1.716-4.817C23.118.593 21.263.167 19.627.12zm-6.292 21.565a7.93 7.93 0 01-4.545-1.441 8.48 8.48 0 01-3.012-3.838 8.91 8.91 0 01-.466-4.94A8.677 8.677 0 017.551 7.09a8.076 8.076 0 014.188-2.34 7.85 7.85 0 014.726.486 8.268 8.268 0 013.67 3.15 8.828 8.828 0 011.379 4.75c0 2.267-.862 4.442-2.396 6.045-1.534 1.604-3.614 2.505-5.783 2.505zm8.214-15.336c-.324 0-.64-.1-.91-.288a1.697 1.697 0 01-.601-.768 1.782 1.782 0 01-.093-.988 1.74 1.74 0 01.447-.875c.23-.24.52-.402.838-.468a1.57 1.57 0 01.945.097c.299.13.554.35.734.63a1.765 1.765 0 01.151 1.605 1.716 1.716 0 01-.354.555 1.632 1.632 0 01-.531.37c-.199.086-.412.13-.626.13z" fill="#BC9E5F"/></svg>