<svg width="24" height="24" viewBox="0 0 24 24" fill="none" xmlns="http://www.w3.org/2000/svg"><path d="M11.378 19.064l-3.839 3.87-.782-.595-.15-3.536-2.459-1.265-1.23-2.494-.745-2.79V7.935l.745-3.275 1.565-1.712 2.125-.745 3.018-.483 4.323.186 3.615.297 2.348 1.415 1.677 1.712.708 8.374-1.044 2.828-3.204 2.53h-6.671z" fill="#CAB47C"/><path d="M22.956 5.748l-.006-.027c-.55-2.213-3.02-4.588-5.291-5.082l-.026-.005c-3.672-.7-7.395-.7-11.066 0L6.54.64c-2.269.493-4.74 2.868-5.29 5.081l-.006.027a21.584 21.584 0 000 9.314l.006.027c.525 2.119 2.813 4.384 4.999 5.007v2.47c0 .894 1.091 1.333 1.712.688l2.507-2.601a29.548 29.548 0 007.165-.477l.026-.005c2.27-.494 4.742-2.869 5.29-5.082l.007-.027a21.58 21.58 0 000-9.314zm-1.984 8.866c-.366 1.444-2.243 3.238-3.734 3.57a27.45 27.45 0 01-5.886.475.14.14 0 00-.104.042c-.28.285-1.831 1.875-1.831 1.875L7.47 22.572a.228.228 0 01-.392-.157v-4.092a.141.141 0 00-.115-.138h-.001c-1.492-.332-3.368-2.127-3.735-3.57a19.587 19.587 0 010-8.418c.367-1.444 2.243-3.239 3.735-3.57a27.43 27.43 0 0110.276 0c1.492.331 3.368 2.126 3.734 3.57a19.559 19.559 0 010 8.418z" fill="#CAB47C"/><path d="M16.002 17.38c-.273-.083-.534-.139-.776-.239-2.508-1.036-4.816-2.374-6.644-4.424-1.04-1.166-1.854-2.482-2.542-3.875-.326-.66-.6-1.347-.88-2.03-.256-.621.12-1.264.516-1.732.372-.44.85-.776 1.369-1.025.404-.193.803-.081 1.099.26.638.739 1.225 1.515 1.7 2.37.292.527.212 1.17-.318 1.53-.128.086-.246.188-.365.287a1.197 1.197 0 00-.276.29.792.792 0 00-.054.697c.653 1.788 1.753 3.178 3.559 3.926.289.12.58.26.912.22.557-.064.738-.673 1.129-.992.381-.31.87-.315 1.28-.056.412.26.81.538 1.207.82.39.276.777.546 1.136.861.345.303.463.7.27 1.111-.357.753-.874 1.379-1.621 1.778-.211.113-.463.15-.7.223.237-.073-.274-.083 0 0zM12.14 3.195c3.28.091 5.975 2.26 6.552 5.492.098.55.133 1.113.177 1.672.019.235-.115.459-.37.461-.262.004-.38-.216-.398-.45-.034-.466-.057-.933-.121-1.394-.34-2.435-2.289-4.45-4.721-4.881-.366-.065-.74-.082-1.111-.121-.235-.025-.542-.039-.594-.33-.043-.243.163-.436.395-.449.064-.003.127 0 .19 0-.063 0 3.281.091 0 0z" fill="#112542"/><path d="M17.125 9.634c-.005.041-.008.137-.032.227-.087.329-.587.37-.701.038a.983.983 0 01-.04-.316c-.001-.692-.152-1.383-.502-1.986a3.704 3.704 0 00-1.556-1.454 4.488 4.488 0 00-1.24-.38c-.187-.03-.376-.049-.564-.075-.228-.031-.35-.176-.338-.4.01-.209.163-.36.392-.347.753.043 1.48.205 2.15.558 1.36.718 2.138 1.852 2.365 3.366.01.068.027.136.032.205.013.17.021.34.034.564-.013-.224-.005.041 0 0z" fill="#112542"/><path d="M15.085 9.555c-.275.005-.422-.147-.45-.397-.02-.175-.035-.352-.077-.522a1.468 1.468 0 00-.544-.851 1.422 1.422 0 00-.443-.213c-.202-.058-.41-.042-.612-.091-.218-.053-.338-.23-.304-.433a.394.394 0 01.416-.316c1.272.091 2.18.747 2.31 2.238.01.106.02.217-.003.318a.326.326 0 01-.293.267c.125-.009-.275.005 0 0z" fill="#112542"/></svg>