<svg width="25" height="24" viewBox="0 0 25 24" fill="none" xmlns="http://www.w3.org/2000/svg"><path d="M13.03 23.305c6.455 0 11.69-5.234 11.69-11.69 0-6.457-5.235-11.69-11.69-11.69-6.457 0-11.69 5.233-11.69 11.69 0 6.456 5.233 11.69 11.69 11.69z" fill="#CAB47C"/><path d="M4.984 10.573L18.32 5.43c.62-.224 1.16.15.96 1.087v-.002l-2.27 10.698c-.169.759-.62.943-1.25.586l-3.458-2.549-1.668 1.607c-.184.184-.34.34-.697.34l.246-3.52L16.59 7.89c.28-.245-.062-.384-.43-.14l-7.92 4.987-3.414-1.065c-.74-.235-.757-.741.157-1.098z" fill="#112542"/></svg>