<svg width="44" height="27" viewBox="0 0 44 27" fill="none" xmlns="http://www.w3.org/2000/svg"><path d="M42.953 23.534c-.116-.2-.833-1.805-4.285-5.102-3.614-3.454-3.129-2.893 1.224-8.864 2.651-3.636 3.711-5.857 3.38-6.806-.551-1.58-3.105-.661-4.78-.651l-3.103.019c-.577.003-1.213-.144-1.705.157-.525.327-.677 1.008-.908 1.581-.41 1.019-1.162 2.772-2.062 4.343-2.888 5.05-4.046 5.316-4.518 5.002-1.097-.73-.822-2.937-.822-4.502 0-4.894.72-6.934-1.405-7.462-.707-.175-1.225-.291-3.03-.31-2.313-.026-4.274.008-5.383.566-.739.372-1.308 1.202-.96 1.249.43.058 1.4.269 1.915.99.14.196.25.443.335.71.475 1.487.383 3.093.357 4.653-.027 1.684-.216 3.729-.943 4.137-.876.49-2.076-.511-4.652-5.094-1.055-1.877-1.905-3.913-2.203-4.653-.077-.192-.149-.387-.255-.566a1.63 1.63 0 00-.393-.463c-.578-.437-1.362-.411-2.087-.407l-4.366.028c-.473.003-.956-.017-1.41.12-.218.065-.435.167-.565.325-.496.606.124 1.49.44 2.204 1.335 3.011 5.37 11.628 9.827 16.408 3.803 4.074 7.996 4.855 9.8 4.995.603.047 1.209.024 1.815.024h.355c.875 0 1.905.121 2.49-.53.285-.316.34-.846.35-1.066.004-.067.002-.132.003-.199.006-.579.108-3.515 1.556-3.987 1.583-.516 3.617 3.442 5.772 4.966 1.013.716 1.874.89 2.381.918.324.018.649-.021.973-.026l1.332-.02c2.17-.03 6.627-.816 5.53-2.688z" fill="#BC9E5F"/></svg>