<svg width="24" height="24" viewBox="0 0 24 24" fill="none" xmlns="http://www.w3.org/2000/svg"><path d="M5.17 21.36l.438.243c1.804 1.122 3.901 1.805 6.096 1.805 6.388 0 11.704-5.316 11.704-11.802S18.092 0 11.655 0 0 5.17 0 11.606c0 2.244.634 4.438 1.804 6.291l.293.439-1.122 4.096L5.17 21.36z" fill="#CAB47C"/><path d="M7.896 5.033l-.929-.049c-.293 0-.586.098-.781.295-.44.392-1.173 1.128-1.368 2.11-.342 1.471.195 3.237 1.465 5.004 1.27 1.766 3.713 4.611 8.012 5.838 1.368.392 2.443.147 3.322-.393a2.895 2.895 0 001.27-1.864l.147-.687a.494.494 0 00-.244-.54l-3.078-1.422a.465.465 0 00-.586.147l-1.222 1.57c-.097.098-.244.147-.39.098-.83-.294-3.615-1.472-5.13-4.415-.049-.148-.049-.295.049-.393l1.172-1.325c.098-.147.147-.343.098-.49l-1.417-3.19a.426.426 0 00-.39-.294z" fill="#112542"/></svg>