<svg width="18" height="18" viewBox="0 0 18 18" fill="none" xmlns="http://www.w3.org/2000/svg"><path d="M17.912 7.764a8.963 8.963 0 00-3.47-5.925 8.998 8.998 0 00-12.59 1.724A8.953 8.953 0 00.11 10.201a9.023 9.023 0 002.557 5.154 9.055 9.055 0 005.156 2.567c.4.053.802.079 1.205.08a8.91 8.91 0 004.62-1.283.87.87 0 00.296-1.19.866.866 0 00-.536-.395.87.87 0 00-.657.099 7.254 7.254 0 01-9.356-1.647A7.223 7.223 0 012.046 7.09a7.225 7.225 0 014.528-4.86 7.257 7.257 0 016.388.738 7.236 7.236 0 013.259 5.277 7.214 7.214 0 01-.357 3.158 1.253 1.253 0 01-1.205.813 1.299 1.299 0 01-1.295-1.293V5.566a.867.867 0 00-.869-.867.87.87 0 00-.87.867v.008a4.351 4.351 0 00-6.39 1.31 4.33 4.33 0 002.113 6.161 4.355 4.355 0 004.591-.807 3.024 3.024 0 002.72 1.714 2.999 2.999 0 002.848-1.98 8.967 8.967 0 00.405-4.208zm-8.894 3.875a2.612 2.612 0 01-2.41-1.607 2.597 2.597 0 01.566-2.836 2.61 2.61 0 014.452 1.84 2.607 2.607 0 01-.765 1.84 2.613 2.613 0 01-1.843.763z" fill="#D9B568"/></svg>