<svg width="29" height="27" viewBox="0 0 29 27" fill="none" xmlns="http://www.w3.org/2000/svg"><path d="M1.212 13.087l6.485 2.495 2.51 8.318c.16.533.793.73 1.213.376l3.614-3.037a1.053 1.053 0 011.315-.037l6.52 4.878c.449.336 1.085.083 1.197-.476l4.776-23.676c.123-.61-.459-1.12-1.023-.895L1.205 11.613c-.657.262-.651 1.22.007 1.474zm8.59 1.167L22.478 6.21c.227-.145.462.173.266.36l-10.46 10.02a2.258 2.258 0 00-.671 1.336l-.357 2.721a.326.326 0 01-.64.048l-1.37-4.962a1.334 1.334 0 01.558-1.48z" fill="#BC9E5F"/></svg>