<svg viewBox="0 0 490 490" xmlns="http://www.w3.org/2000/svg" xmlns:xlink="http://www.w3.org/1999/xlink"><style>:root&gt;svg{display:none}:root&gt;svg:target{display:block}</style><svg viewBox="0 0 48 48" id="css--check_icon" xmlns="http://www.w3.org/2000/svg"><path d="M18.9 35.7L7.7 24.5l2.15-2.15 9.05 9.05 19.2-19.2 2.15 2.15z"/></svg><svg viewBox="0 0 48 48" id="css--close_icon" xmlns="http://www.w3.org/2000/svg"><path d="M12.45 37.65l-2.1-2.1L21.9 24 10.35 12.45l2.1-2.1L24 21.9l11.55-11.55 2.1 2.1L26.1 24l11.55 11.55-2.1 2.1L24 26.1z"/></svg><svg viewBox="0 0 490 490" id="css--envelope-icon" xmlns="http://www.w3.org/2000/svg"><path d="M479.574 78.191H10.425c-.071 0-.141.007-.211.008l.001.003C4.556 78.315 0 82.925 0 88.617v312.766c0 5.762 4.669 10.426 10.425 10.426h469.149c5.758 0 10.426-4.664 10.426-10.426V88.617c0-5.763-4.668-10.426-10.426-10.426zm-25.167 20.852l-138.581 138.58-.006.005L245 308.449l-70.82-70.821-.013-.012L35.594 99.043h418.813zM20.851 113.784l131.215 131.215L20.851 376.215V113.784zm14.743 277.173l131.215-131.216 70.821 70.821c3.629 3.629 9.303 5.439 14.743 0l70.82-70.82 131.215 131.215H35.594zm433.555-14.744L337.935 244.999l131.214-131.214v262.428z"/></svg><svg viewBox="0 0 60 60" id="css--envelope-icon-black" xmlns="http://www.w3.org/2000/svg"><path d="M60 50.234V9.944L39.482 30.536zM0 9.941v40.293l20.519-19.699zM1.387 8.5l21.002 21.08c.121.051.471.415.517.519l5.941 5.963c.635.591 1.672.59 2.333-.025l5.911-5.933c.046-.105.4-.473.522-.524L58.615 8.5H1.387z"/><path d="M38.07 31.954l-5.5 5.52a3.777 3.777 0 01-2.58 1.019 3.705 3.705 0 01-2.533-.993l-5.526-5.546L1.569 51.5h56.862L38.07 31.954z"/></svg><svg fill="none" viewBox="0 0 28 28" id="css--icon-fb" xmlns="http://www.w3.org/2000/svg"><path d="M20.632.944L17.226.94c-3.827 0-6.3 2.537-6.3 6.464v2.98H7.501a.536.536 0 00-.535.537v4.318c0 .296.24.536.535.536h3.425V26.67c0 .296.24.535.536.535h4.468c.296 0 .536-.24.536-.535V15.774h4.004c.296 0 .536-.24.536-.536l.001-4.318a.536.536 0 00-.536-.536h-4.005V7.857c0-1.214.289-1.83 1.871-1.83l2.295-.001c.295 0 .535-.24.535-.536V1.48a.536.536 0 00-.535-.536z" fill="#BC9E5F"/></svg><svg fill="none" viewBox="0 0 26 27" id="css--icon-inst" xmlns="http://www.w3.org/2000/svg"><path d="M13.335 18.65c2.915 0 5.277-2.47 5.277-5.517 0-3.046-2.362-5.516-5.277-5.516-2.914 0-5.277 2.47-5.277 5.516 0 3.047 2.363 5.517 5.277 5.517z" fill="#BC9E5F"/><path d="M19.627.12c-3.145-.09-9.44-.09-12.584 0-1.636.047-3.491.473-4.657 1.775C1.174 3.248.716 4.883.67 6.712c-.082 3.21 0 12.845 0 12.845.053 1.829.504 3.464 1.716 4.817 1.166 1.302 3.02 1.728 4.657 1.775 3.145.09 9.439.09 12.584 0 1.636-.047 3.491-.473 4.657-1.775 1.212-1.353 1.67-2.988 1.716-4.817V6.712c-.046-1.829-.504-3.464-1.716-4.817C23.118.593 21.263.167 19.627.12zm-6.292 21.565a7.93 7.93 0 01-4.545-1.441 8.48 8.48 0 01-3.012-3.838 8.91 8.91 0 01-.466-4.94A8.677 8.677 0 017.551 7.09a8.076 8.076 0 014.188-2.34 7.85 7.85 0 014.726.486 8.268 8.268 0 013.67 3.15 8.828 8.828 0 011.379 4.75c0 2.267-.862 4.442-2.396 6.045-1.534 1.604-3.614 2.505-5.783 2.505zm8.214-15.336c-.324 0-.64-.1-.91-.288a1.697 1.697 0 01-.601-.768 1.782 1.782 0 01-.093-.988 1.74 1.74 0 01.447-.875c.23-.24.52-.402.838-.468a1.57 1.57 0 01.945.097c.299.13.554.35.734.63a1.765 1.765 0 01.151 1.605 1.716 1.716 0 01-.354.555 1.632 1.632 0 01-.531.37c-.199.086-.412.13-.626.13z" fill="#BC9E5F"/></svg><svg fill="none" viewBox="0 0 18 18" id="css--icon-mail" xmlns="http://www.w3.org/2000/svg"><path d="M17.912 7.764a8.963 8.963 0 00-3.47-5.925 8.998 8.998 0 00-12.59 1.724A8.953 8.953 0 00.11 10.201a9.023 9.023 0 002.557 5.154 9.055 9.055 0 005.156 2.567c.4.053.802.079 1.205.08a8.91 8.91 0 004.62-1.283.87.87 0 00.296-1.19.866.866 0 00-.536-.395.87.87 0 00-.657.099 7.254 7.254 0 01-9.356-1.647A7.223 7.223 0 012.046 7.09a7.225 7.225 0 014.528-4.86 7.257 7.257 0 016.388.738 7.236 7.236 0 013.259 5.277 7.214 7.214 0 01-.357 3.158 1.253 1.253 0 01-1.205.813 1.299 1.299 0 01-1.295-1.293V5.566a.867.867 0 00-.869-.867.87.87 0 00-.87.867v.008a4.351 4.351 0 00-6.39 1.31 4.33 4.33 0 002.113 6.161 4.355 4.355 0 004.591-.807 3.024 3.024 0 002.72 1.714 2.999 2.999 0 002.848-1.98 8.967 8.967 0 00.405-4.208zm-8.894 3.875a2.612 2.612 0 01-2.41-1.607 2.597 2.597 0 01.566-2.836 2.61 2.61 0 014.452 1.84 2.607 2.607 0 01-.765 1.84 2.613 2.613 0 01-1.843.763z" fill="#D9B568"/></svg><svg fill="none" viewBox="0 0 18 24" id="css--icon-phone" xmlns="http://www.w3.org/2000/svg"><path d="M17.01 15.38c-1.23 0-2.42-.2-3.53-.56a.977.977 0 00-1.01.24l-1.57 1.97c-2.83-1.35-5.48-3.9-6.89-6.83l1.95-1.66c.27-.28.35-.67.24-1.02-.37-1.11-.56-2.3-.56-3.53 0-.54-.45-.99-.99-.99H1.19C.65 3 0 3.24 0 3.99 0 13.28 7.73 21 17.01 21c.71 0 .99-.63.99-1.18v-3.45c0-.54-.45-.99-.99-.99z" fill="#D9B568"/></svg><svg fill="none" viewBox="0 0 29 27" id="css--icon-telegr" xmlns="http://www.w3.org/2000/svg"><path d="M1.212 13.087l6.485 2.495 2.51 8.318c.16.533.793.73 1.213.376l3.614-3.037a1.053 1.053 0 011.315-.037l6.52 4.878c.449.336 1.085.083 1.197-.476l4.776-23.676c.123-.61-.459-1.12-1.023-.895L1.205 11.613c-.657.262-.651 1.22.007 1.474zm8.59 1.167L22.478 6.21c.227-.145.462.173.266.36l-10.46 10.02a2.258 2.258 0 00-.671 1.336l-.357 2.721a.326.326 0 01-.64.048l-1.37-4.962a1.334 1.334 0 01.558-1.48z" fill="#BC9E5F"/></svg><svg fill="none" viewBox="0 0 24 24" id="css--icon-vibe" xmlns="http://www.w3.org/2000/svg"><path d="M11.378 19.064l-3.839 3.87-.782-.595-.15-3.536-2.459-1.265-1.23-2.494-.745-2.79V7.935l.745-3.275 1.565-1.712 2.125-.745 3.018-.483 4.323.186 3.615.297 2.348 1.415 1.677 1.712.708 8.374-1.044 2.828-3.204 2.53h-6.671z" fill="#CAB47C"/><path d="M22.956 5.748l-.006-.027c-.55-2.213-3.02-4.588-5.291-5.082l-.026-.005c-3.672-.7-7.395-.7-11.066 0L6.54.64c-2.269.493-4.74 2.868-5.29 5.081l-.006.027a21.584 21.584 0 000 9.314l.006.027c.525 2.119 2.813 4.384 4.999 5.007v2.47c0 .894 1.091 1.333 1.712.688l2.507-2.601a29.548 29.548 0 007.165-.477l.026-.005c2.27-.494 4.742-2.869 5.29-5.082l.007-.027a21.58 21.58 0 000-9.314zm-1.984 8.866c-.366 1.444-2.243 3.238-3.734 3.57a27.45 27.45 0 01-5.886.475.14.14 0 00-.104.042c-.28.285-1.831 1.875-1.831 1.875L7.47 22.572a.228.228 0 01-.392-.157v-4.092a.141.141 0 00-.115-.138h-.001c-1.492-.332-3.368-2.127-3.735-3.57a19.587 19.587 0 010-8.418c.367-1.444 2.243-3.239 3.735-3.57a27.43 27.43 0 0110.276 0c1.492.331 3.368 2.126 3.734 3.57a19.559 19.559 0 010 8.418z" fill="#CAB47C"/><path d="M16.002 17.38c-.273-.083-.534-.139-.776-.239-2.508-1.036-4.816-2.374-6.644-4.424-1.04-1.166-1.854-2.482-2.542-3.875-.326-.66-.6-1.347-.88-2.03-.256-.621.12-1.264.516-1.732.372-.44.85-.776 1.369-1.025.404-.193.803-.081 1.099.26.638.739 1.225 1.515 1.7 2.37.292.527.212 1.17-.318 1.53-.128.086-.246.188-.365.287a1.197 1.197 0 00-.276.29.792.792 0 00-.054.697c.653 1.788 1.753 3.178 3.559 3.926.289.12.58.26.912.22.557-.064.738-.673 1.129-.992.381-.31.87-.315 1.28-.056.412.26.81.538 1.207.82.39.276.777.546 1.136.861.345.303.463.7.27 1.111-.357.753-.874 1.379-1.621 1.778-.211.113-.463.15-.7.223.237-.073-.274-.083 0 0zM12.14 3.195c3.28.091 5.975 2.26 6.552 5.492.098.55.133 1.113.177 1.672.019.235-.115.459-.37.461-.262.004-.38-.216-.398-.45-.034-.466-.057-.933-.121-1.394-.34-2.435-2.289-4.45-4.721-4.881-.366-.065-.74-.082-1.111-.121-.235-.025-.542-.039-.594-.33-.043-.243.163-.436.395-.449.064-.003.127 0 .19 0-.063 0 3.281.091 0 0z" fill="#112542"/><path d="M17.125 9.634c-.005.041-.008.137-.032.227-.087.329-.587.37-.701.038a.983.983 0 01-.04-.316c-.001-.692-.152-1.383-.502-1.986a3.704 3.704 0 00-1.556-1.454 4.488 4.488 0 00-1.24-.38c-.187-.03-.376-.049-.564-.075-.228-.031-.35-.176-.338-.4.01-.209.163-.36.392-.347.753.043 1.48.205 2.15.558 1.36.718 2.138 1.852 2.365 3.366.01.068.027.136.032.205.013.17.021.34.034.564-.013-.224-.005.041 0 0z" fill="#112542"/><path d="M15.085 9.555c-.275.005-.422-.147-.45-.397-.02-.175-.035-.352-.077-.522a1.468 1.468 0 00-.544-.851 1.422 1.422 0 00-.443-.213c-.202-.058-.41-.042-.612-.091-.218-.053-.338-.23-.304-.433a.394.394 0 01.416-.316c1.272.091 2.18.747 2.31 2.238.01.106.02.217-.003.318a.326.326 0 01-.293.267c.125-.009-.275.005 0 0z" fill="#112542"/></svg><svg fill="none" viewBox="0 0 44 27" id="css--icon-vk" xmlns="http://www.w3.org/2000/svg"><path d="M42.953 23.534c-.116-.2-.833-1.805-4.285-5.102-3.614-3.454-3.129-2.893 1.224-8.864 2.651-3.636 3.711-5.857 3.38-6.806-.551-1.58-3.105-.661-4.78-.651l-3.103.019c-.577.003-1.213-.144-1.705.157-.525.327-.677 1.008-.908 1.581-.41 1.019-1.162 2.772-2.062 4.343-2.888 5.05-4.046 5.316-4.518 5.002-1.097-.73-.822-2.937-.822-4.502 0-4.894.72-6.934-1.405-7.462-.707-.175-1.225-.291-3.03-.31-2.313-.026-4.274.008-5.383.566-.739.372-1.308 1.202-.96 1.249.43.058 1.4.269 1.915.99.14.196.25.443.335.71.475 1.487.383 3.093.357 4.653-.027 1.684-.216 3.729-.943 4.137-.876.49-2.076-.511-4.652-5.094-1.055-1.877-1.905-3.913-2.203-4.653-.077-.192-.149-.387-.255-.566a1.63 1.63 0 00-.393-.463c-.578-.437-1.362-.411-2.087-.407l-4.366.028c-.473.003-.956-.017-1.41.12-.218.065-.435.167-.565.325-.496.606.124 1.49.44 2.204 1.335 3.011 5.37 11.628 9.827 16.408 3.803 4.074 7.996 4.855 9.8 4.995.603.047 1.209.024 1.815.024h.355c.875 0 1.905.121 2.49-.53.285-.316.34-.846.35-1.066.004-.067.002-.132.003-.199.006-.579.108-3.515 1.556-3.987 1.583-.516 3.617 3.442 5.772 4.966 1.013.716 1.874.89 2.381.918.324.018.649-.021.973-.026l1.332-.02c2.17-.03 6.627-.816 5.53-2.688z" fill="#BC9E5F"/></svg><svg fill="none" viewBox="0 0 24 24" id="css--icon-wapp" xmlns="http://www.w3.org/2000/svg"><path d="M5.17 21.36l.438.243c1.804 1.122 3.901 1.805 6.096 1.805 6.388 0 11.704-5.316 11.704-11.802S18.092 0 11.655 0 0 5.17 0 11.606c0 2.244.634 4.438 1.804 6.291l.293.439-1.122 4.096L5.17 21.36z" fill="#CAB47C"/><path d="M7.896 5.033l-.929-.049c-.293 0-.586.098-.781.295-.44.392-1.173 1.128-1.368 2.11-.342 1.471.195 3.237 1.465 5.004 1.27 1.766 3.713 4.611 8.012 5.838 1.368.392 2.443.147 3.322-.393a2.895 2.895 0 001.27-1.864l.147-.687a.494.494 0 00-.244-.54l-3.078-1.422a.465.465 0 00-.586.147l-1.222 1.57c-.097.098-.244.147-.39.098-.83-.294-3.615-1.472-5.13-4.415-.049-.148-.049-.295.049-.393l1.172-1.325c.098-.147.147-.343.098-.49l-1.417-3.19a.426.426 0 00-.39-.294z" fill="#112542"/></svg><svg viewBox="0 0 32 32" id="css--magnifier-plus-search-zoom" xmlns="http://www.w3.org/2000/svg"><circle cx="14" cy="14" fill="none" r="9" stroke="#000" stroke-linecap="round" stroke-linejoin="round" stroke-miterlimit="10" stroke-width="2"/><path fill="none" stroke="#000" stroke-linecap="round" stroke-linejoin="round" stroke-miterlimit="10" stroke-width="2" d="M27 27l-6.634-6.634M14 10v8m-4-4h8"/></svg><svg viewBox="0 0 481 481" id="css--play-button" xmlns="http://www.w3.org/2000/svg"><path d="M410.6 70.4C365.1 25 304.7 0 240.5 0S115.9 25 70.4 70.4C25 115.9 0 176.3 0 240.5s25 124.6 70.4 170.1C115.8 456 176.2 481 240.5 481s124.6-25 170.1-70.4C456 365.2 481 304.8 481 240.5s-25-124.6-70.4-170.1zM240.5 454C122.8 454 27 358.2 27 240.5S122.8 27 240.5 27 454 122.8 454 240.5 358.2 454 240.5 454z"/><path d="M349.2 229.1l-152.6-97.9c-4.2-2.7-9.4-2.9-13.8-.5-4.3 2.4-7 6.9-7 11.8v195.7c0 4.9 2.7 9.5 7 11.8 2 1.1 4.3 1.7 6.5 1.7 2.5 0 5.1-.7 7.3-2.1l152.6-97.9c3.9-2.5 6.2-6.8 6.2-11.4s-2.4-8.7-6.2-11.2zm-146.4 84.6V167.3l114.1 73.2-114.1 73.2z"/></svg><svg fill="none" viewBox="0 0 24 24" id="css--quote-svgrepo-com" xmlns="http://www.w3.org/2000/svg"><path d="M9.135 9h3L10 14.607H7L9.135 9zm5 0h3L15 14.607h-3L14.135 9z" fill="currentColor"/></svg><svg viewBox="0 0 49 49" id="css--up-arrow" xmlns="http://www.w3.org/2000/svg"><path d="M1.277 29.998h46a1 1 0 00.595-1.804l-23-17a1 1 0 00-1.188 0l-23 17a1 1 0 00.593 1.804zm23-16.756l19.965 14.756H4.313l19.964-14.756zM48 32.001H1a1 1 0 00-1 1v4a1 1 0 001 1h47a1 1 0 001-1v-4a1 1 0 00-1-1zm-1 4H2v-2h45v2z"/></svg></svg>