<svg width="1042" height="561" viewBox="0 0 1042 561" fill="none" xmlns="http://www.w3.org/2000/svg"><path d="M1 162.078c7.354-4.243 241.285-128.422 393.751-48.088 152.465 80.335 207.907 211.868 389.508 231.103 145.28 15.388 231.381-35.453 256.281-62.797" stroke="#999" stroke-width="1.697"/><path d="M10.334 205.238c7.354-4.243 111.166-140.302 252.6-111.45 141.434 28.853 268.698 219.705 402.52 95.445 128.987-119.77 283.999-67.158 283.999-67.158m77.677 293.453c-9.11-4.243-171.338-254.266-301.508-95.456-80.077 97.696-151.36 112.688-355.024 75.915C166.934 359.214 73.87 417.768 73.87 417.768" stroke="#76BD01" stroke-width="1.697"/><g clip-path="url(#clip0)"><path d="M827.444 489.197c-4.107 2.119-8.41 3.948-12.655 5.772-15.684 6.627-31.603 13.311-48.452 15.586-31.644 4.213-64.297-7.331-95.387-.127-26.043 6.014-47.581 24.445-73.024 32.653-11.83 3.816-24.139 5.311-36.558 5.311h-1.604c-1.538-.02-3.064-.058-4.579-.116-12.592-.473-25.236-2.338-37.579-4.722-38.975-7.503-78.643-21.259-108.44-46.582 86.763-15.862 265.487-40.209 418.278-7.775z" fill="#EAE9D7"/><path d="M828.361 363.163V333.82h-17.428v29.343h-20.639v-45.39h-15.135v-33.928h-12.383V249h-25.684v34.845h-12.383v33.928h-14.677v-40.805h-8.255v-20.632h-5.045v20.632h-29.353v130.21h-22.473v-13.755h-13.759v13.755h-22.474v-44.015h-40.36V333.82h-17.428v29.343h-.917v56.394h-18.346v-33.011h-22.015v33.011h-18.345V317.773h-14.218v-33.928h-52.285v33.928H411v179.268h438V363.163h-20.639z" fill="#76B220"/><path opacity=".4" d="M438.977 328.318h-19.263v11.004h19.263v-11.004zm23.849 11.004h19.263v-11.004h-19.263v11.004zm-23.849 10.545h-19.263v11.004h19.263v-11.004zm23.849 11.004h19.263v-11.004h-19.263v11.004zm-23.849 10.545h-19.263v11.004h19.263v-11.004zm23.849 11.003h19.263v-11.003h-19.263v11.003zm-23.849 10.546h-19.263v11.003h19.263v-11.003zm23.849 11.003h19.263v-11.003h-19.263v11.003zm-23.849 10.546h-19.263v11.003h19.263v-11.003zm23.849 11.003h19.263v-11.003h-19.263v11.003zm-23.849 10.545h-19.263v11.004h19.263v-11.004zm23.849 11.004h19.263v-11.004h-19.263v11.004zm-23.849 10.545h-19.263v11.004h19.263v-11.004zm23.849 11.004h19.263v-11.004h-19.263v11.004zm80.262-38.054h-44.946v5.501h44.946v-5.501zm0 8.252h-44.946v5.502h44.946v-5.502zm0 8.253h-44.946v5.502h44.946v-5.502zM660.5 433.311h-44.947v5.502H660.5v-5.502zm0 8.253h-44.947v5.502H660.5v-5.502zm0 8.253h-44.947v5.502H660.5v-5.502zm-117.412 5.502h-44.946v5.502h44.946v-5.502zm0 8.253h-44.946v5.501h44.946v-5.501zm0 8.252h-44.946v5.502h44.946v-5.502zm28.894-98.116h-12.383v16.047h12.383v-16.047zm14.677 16.047h12.383v-16.047h-12.383v16.047zm-14.677 9.629h-12.383v16.047h12.383v-16.047zm14.677 16.047h12.383v-16.047h-12.383v16.047zm-14.677 9.628h-12.383v16.047h12.383v-16.047zm14.677 16.047h12.383v-16.047h-12.383v16.047zm-14.677 9.628h-12.383v16.047h12.383v-16.047zm14.677 16.047h12.383v-16.047h-12.383v16.047zm97.231-179.268h-16.511v21.09h16.511v-21.09zm0 30.26h-16.511v21.09h16.511v-21.09zm0 30.26h-16.511v21.09h16.511v-21.09zm0 30.26h-16.511v21.091h16.511v-21.091zm0 30.26h-16.511v21.091h16.511v-21.091zm0 30.26h-16.511v21.091h16.511v-21.091zm97.002-108.202h-61.457v17.881h61.457v-17.881zm.23 38.512h-61.458v17.881h61.458v-17.881zm.229 38.513h-61.458v17.881h61.458v-17.881zm.229 38.513h-61.458v17.881h61.458v-17.881zM433.015 293.473h-8.256v17.423h8.256v-17.423zM849 373.708h-20.639v26.593H849v-26.593zm0 38.513h-20.639v26.592H849v-26.592zm0 38.513h-20.639v26.592H849v-26.592z" fill="#fff"/><path d="M808.145 412.794c3.375 3.278 19.111 6.676 19.111 6.676s-3.852-15.621-7.228-18.904a8.529 8.529 0 00-14.468 6.238 8.524 8.524 0 002.585 5.99zm-8.907 39.43c4.206 2.118 20.23.656 20.23.656s-8.351-13.755-12.557-15.873a8.529 8.529 0 00-11.258 3.869 8.524 8.524 0 003.585 11.348zm-3.435 39.503c3.783 2.797 19.831 4.062 19.831 4.062s-5.907-14.965-9.691-17.766a8.53 8.53 0 00-11.87 1.824 8.52 8.52 0 001.73 11.88zm-22.378-55.445c0 2.531-4.586 9.863-4.586 9.863s-4.586-7.336-4.586-9.863a4.587 4.587 0 019.172 0zm7.243 37.949c-2.261 1.137-10.875.353-10.875.353s4.49-7.39 6.747-8.527a4.584 4.584 0 014.128 8.179v-.005zm-4.335 18.06c-2.036 1.504-10.659 2.183-10.659 2.183s3.174-8.042 5.211-9.546a4.586 4.586 0 015.448 7.363z" fill="#76B220"/><path opacity=".1" d="M532.393 270.861h-3.156a2.221 2.221 0 001.628-.61 2.2 2.2 0 00.505-2.467 2.216 2.216 0 00-1.256-1.2 2.221 2.221 0 00-.877-.139h-25.56a2.211 2.211 0 000 4.416h3.156a2.203 2.203 0 00-1.628.609 2.222 2.222 0 00-.506 2.467 2.213 2.213 0 002.134 1.339h-4.417a2.195 2.195 0 00-1.628.61 2.195 2.195 0 00-.505.729 2.196 2.196 0 000 1.737 2.195 2.195 0 001.257 1.201c.279.105.577.152.876.138h25.56a2.198 2.198 0 001.628-.61 2.197 2.197 0 00.505-2.466 2.195 2.195 0 00-1.257-1.201 2.198 2.198 0 00-.876-.138h4.417a2.216 2.216 0 002.311-2.208 2.222 2.222 0 00-.684-1.598 2.213 2.213 0 00-1.627-.609zm112.825 55.476h-3.156a2.203 2.203 0 001.628-.609 2.218 2.218 0 00.506-2.467 2.213 2.213 0 00-2.134-1.339h-25.56a2.211 2.211 0 00-1.497 3.734c.393.412.929.656 1.497.681h3.156a2.221 2.221 0 00-1.628.61 2.218 2.218 0 00-.506 2.467 2.213 2.213 0 002.134 1.339h-4.417a2.217 2.217 0 00-2.133 1.338 2.204 2.204 0 000 1.738 2.195 2.195 0 001.257 1.201c.279.104.578.151.876.138h25.56a2.22 2.22 0 002.133-1.339 2.197 2.197 0 000-1.738 2.216 2.216 0 00-1.257-1.2 2.198 2.198 0 00-.876-.138h4.417a2.22 2.22 0 002.133-1.339 2.218 2.218 0 000-1.738 2.218 2.218 0 00-1.257-1.2 2.22 2.22 0 00-.876-.139z" fill="#252223"/><path opacity=".1" d="M640.984 457.208s-4.586-2.719-4.393-7.336l-5.646-27.395s5.503-5.3 2.421-11.92a11.078 11.078 0 00-.541-1.027c-2.027-3.448-6.815-4.292-11.204-4.241 4.21.037 8.64.958 10.576 4.241.205.345.385.688.541 1.027 3.068 6.639-2.422 11.92-2.422 11.92l5.646 27.409c-.211 4.585 4.394 7.336 4.394 7.336 4.394 5.854 20.079 48.929 20.079 48.929l-19.547 3.141v.101l20.18-3.242s-15.69-43.088-20.084-48.943z" fill="#000"/><path opacity=".1" d="M611.411 401.823c10.37.123 23.285 6.363 23.285 6.363-1.477 8.487-6.471 10.752-16.511 20.582s-20.084 34.918-20.084 34.918c.629 4.585-6.691 34.295-9.833 37.22-2.752 2.549-2.449 6.836-2.334 7.909l.66.248s-.835-5.227 2.293-8.157c3.128-2.93 10.471-32.635 9.843-37.22 0 0 10.039-25.093 20.079-34.923 10.039-9.83 15.039-12.095 16.511-20.581.004.027-13.443-6.488-23.909-6.359zm-17.286-29.935l-3.971 3.558 5.856 7.317-1.885-10.875z" fill="#000"/><path opacity=".1" d="M605.871 330.267s-9.521 8.156-5.535 10.453l-6.421 15.891 2.215 58.132 9.076-15.057-6.201-32.621s-1.77-19.449 3.321-24.048l4.871-9.628-1.326-3.122zm30.197 5.552s21.23 24.153 18.304 35.652c0 0-10.879-2.508-13.805.834 0 0-2.293-7.739-9.205-12.127-6.912-4.387-13.287-32.516 4.706-24.359zm-31.798-17.776a7.318 7.318 0 007.32-7.317 7.318 7.318 0 00-7.32-7.317 7.318 7.318 0 100 14.634zm-41.382 71.744l-.004.002a3.553 3.553 0 00-1.658 4.744l4.454 9.234a3.555 3.555 0 004.745 1.658l.004-.002a3.552 3.552 0 001.658-4.744l-4.453-9.234a3.556 3.556 0 00-4.746-1.658z" fill="#000"/></g><circle cx="400.715" cy="436.715" transform="rotate(-105 400.715 436.715)" fill="url(#paint0_radial)" r="22.629"/><circle cx="444.438" cy="27.438" r="27.438" fill="url(#paint1_radial)"/><circle cx="228.852" cy="497.852" r="28.852" fill="url(#paint2_radial)"/><defs><radialGradient id="paint0_radial" cx="0" cy="0" r="1" gradientUnits="userSpaceOnUse" gradientTransform="rotate(102.402 33.405 376.526) scale(35.4038)"><stop stop-color="#D7FF9E"/><stop offset="1" stop-color="#76B220"/></radialGradient><radialGradient id="paint1_radial" cx="0" cy="0" r="1" gradientUnits="userSpaceOnUse" gradientTransform="translate(424.072 27.721) scale(47.8046)"><stop stop-color="#76B220" stop-opacity=".34"/><stop offset="1" stop-color="#76B220"/></radialGradient><radialGradient id="paint2_radial" cx="0" cy="0" r="1" gradientUnits="userSpaceOnUse" gradientTransform="rotate(79.216 -183.534 377.113) scale(40.5786)"><stop stop-color="#F3F3F3"/><stop offset="1" stop-color="#444549"/></radialGradient><clipPath id="clip0"><path fill="#fff" transform="translate(411 249)" d="M0 0h438v312H0z"/></clipPath></defs></svg>