<svg width="25" height="25" viewBox="0 0 25 25" fill="none" xmlns="http://www.w3.org/2000/svg"><path d="M11.024.03C4.945.03 0 4.962 0 11.024c0 6.062 4.946 10.994 11.024 10.994 6.079 0 11.024-4.932 11.024-10.994C22.048 4.962 17.103.03 11.024.03zm0 20.18c-5.082 0-9.217-4.12-9.217-9.186s4.135-9.187 9.217-9.187c5.082 0 9.217 4.121 9.217 9.187 0 5.065-4.135 9.187-9.217 9.187z" fill="#3F3133"/><path d="M24.734 23.425L18.8 17.523a.904.904 0 00-1.275 1.281l5.934 5.904a.901.901 0 001.278-.003.904.904 0 00-.003-1.279z" fill="#3F3133"/></svg>