<svg width="25" height="25" viewBox="0 0 25 25" fill="none" xmlns="http://www.w3.org/2000/svg"><path fill-rule="evenodd" clip-rule="evenodd" d="M1.633 0C.73 0 0 .731 0 1.633v21.224c0 .902.731 1.633 1.633 1.633h21.224c.902 0 1.633-.731 1.633-1.633V1.633C24.49.73 23.759 0 22.857 0H1.633zm21.224 2.286H3.918V20.57h18.94V2.286z" fill="#fff"/><path d="M20.902 0H3.587A3.592 3.592 0 000 3.587v17.315a3.592 3.592 0 003.587 3.588h17.315a3.592 3.592 0 003.588-3.588V3.587A3.592 3.592 0 0020.902 0zm-8.61 18.654a6.464 6.464 0 01-6.457-6.457 6.464 6.464 0 016.458-6.457 6.464 6.464 0 016.457 6.457 6.464 6.464 0 01-6.457 6.457zm7.175-11.48a2.155 2.155 0 01-2.152-2.152c0-1.187.966-2.152 2.152-2.152 1.187 0 2.153.965 2.153 2.152a2.155 2.155 0 01-2.153 2.153z" fill="#fff"/><path d="M19.467 4.305a.718.718 0 10.001 1.436.718.718 0 000-1.436zm-7.174 2.87a5.028 5.028 0 00-5.023 5.022 5.028 5.028 0 005.023 5.022 5.028 5.028 0 005.022-5.022 5.028 5.028 0 00-5.022-5.022z" fill="#fff"/></svg>