<svg width="25" height="25" viewBox="0 0 25 25" fill="none" xmlns="http://www.w3.org/2000/svg"><path d="M22.93 0H1.563C.7 0 0 .7 0 1.562v21.365c0 .863.7 1.563 1.564 1.563h21.363c.863 0 1.563-.7 1.563-1.563V1.562A1.56 1.56 0 0022.93 0zm-2.616 14.923c.448.456 1.42 1.221 1.243 2-.162.716-1.23.455-2.267.497-1.184.05-1.886.076-2.598-.496-.335-.271-.532-.593-.853-.952-.293-.325-.66-.908-1.162-.885-.9.045-.618 1.3-.938 2.155-5.005.788-7.015-2.304-8.788-5.304-.859-1.453-2.1-4.574-2.1-4.574l3.54-.012s1.135 2.065 1.436 2.597c.256.453.537.812.828 1.217.243.335.629.992 1.05.938.686-.088.81-2.75.386-3.641-.17-.361-.576-.488-.996-.61.142-.895 3.97-1.082 4.588-.387.9 1.009-.622 3.819.609 4.638 1.728-.905 3.204-4.697 3.204-4.697l4.144.026s-.648 2.05-1.327 2.958c-.396.533-1.71 1.718-1.658 2.598.042.696 1.11 1.374 1.66 1.934z" fill="#fff"/></svg>