<svg width="50" height="50" viewBox="0 0 50 50" fill="none" xmlns="http://www.w3.org/2000/svg"><path d="M42.678 7.322A24.837 24.837 0 0025 0C18.322 0 12.044 2.6 7.322 7.322A24.837 24.837 0 000 25c0 4.247 1.086 8.444 3.141 12.138a.732.732 0 101.28-.713A23.551 23.551 0 011.465 25 23.381 23.381 0 018.358 8.358 23.381 23.381 0 0125 1.465a23.38 23.38 0 0116.642 6.893A23.38 23.38 0 0148.535 25a23.381 23.381 0 01-6.893 16.642A23.38 23.38 0 0125 48.535c-7.255 0-13.995-3.272-18.493-8.977a.732.732 0 10-1.15.907C10.134 46.525 17.293 50 25 50c6.678 0 12.956-2.6 17.678-7.322A24.837 24.837 0 0050 25c0-6.678-2.6-12.956-7.322-17.678z" fill="#73877B"/><path d="M39.658 11.963c-3.667-1.386-7.473-1.657-10.717-.761-2.79.77-5.155 2.598-6.49 5.014-1.26 2.284-1.468 4.81-.553 6.753.568 1.208 1.509 2.2 2.647 2.88-.01.256-.017.518-.017.788v5.949a12.862 12.862 0 00-1.316-1.7 5.333 5.333 0 00.155-3.53c-.435-1.437-1.391-2.569-2.765-3.274-1.841-.945-4.388-1.054-6.646-.285-3.605 1.228-5.219 3.601-5.286 3.702a.732.732 0 00.51 1.132c1.602.22 2.44 1.237 3.41 2.415 1.124 1.363 2.397 2.909 5.012 3.222a5.33 5.33 0 004.716-1.885c.042-.051.082-.104.123-.156.922 1.091 1.63 2.333 1.975 3.585a.731.731 0 00.113.233v4.483a.732.732 0 101.464 0v-13.89l.001-.127a6.979 6.979 0 002.764.323c2.78-.247 5.125-2.21 6.274-5.252.1-.266.198-.553.3-.877a.732.732 0 10-1.398-.438c-.093.297-.182.558-.273.797-.945 2.504-2.827 4.115-5.033 4.31a5.48 5.48 0 01-2.554-.403c.485-4.85 3.019-6.225 3.147-6.292a.732.732 0 00-.652-1.311c-.145.071-3.126 1.604-3.872 6.8a5.112 5.112 0 01-1.473-1.822c-.716-1.52-.525-3.547.51-5.422 1.145-2.073 3.185-3.644 5.597-4.31 2.587-.714 5.586-.604 8.566.296-1.02.897-1.827 1.894-2.407 2.975a.732.732 0 001.291.692c.664-1.238 1.689-2.358 3.046-3.329a.733.733 0 00.315-.772c-.09-.377-.462-.506-.484-.513zm-21.882 20.85c-2.032-.243-3.014-1.436-4.055-2.698-.807-.98-1.7-2.064-3.118-2.62.707-.693 1.955-1.674 3.825-2.312 1.896-.645 4.005-.568 5.505.202 1.027.527 1.71 1.333 2.032 2.396a3.86 3.86 0 01.07 1.966c-1.528-1.31-3.323-2.248-5.084-2.533a.732.732 0 10-.235 1.446c1.616.262 3.3 1.203 4.697 2.494-.068.098-.14.195-.218.288-.863 1.029-2.11 1.529-3.42 1.372z" fill="#73877B"/></svg>