<svg width="70" height="70" viewBox="0 0 70 70" fill="none" xmlns="http://www.w3.org/2000/svg"><circle cx="35" cy="35" r="34" stroke="#73877B" stroke-width="2"/><g clip-path="url(#clip0)" fill="#73877B"><path d="M30.53 25.127a.435.435 0 00-.616.615l9.255 9.256-9.255 9.255a.435.435 0 00.604.625l.01-.01 9.563-9.563a.435.435 0 000-.615l-9.562-9.563z"/><path d="M30.221 44.995a.435.435 0 01-.307-.742l9.255-9.255-9.255-9.255a.435.435 0 01.615-.616l9.563 9.563c.17.17.17.445 0 .615l-9.563 9.562a.434.434 0 01-.308.128z"/></g><defs><clipPath id="clip0"><path fill="#fff" transform="translate(25 25)" d="M0 0h20v20H0z"/></clipPath></defs></svg>