<svg width="25" height="25" viewBox="0 0 25 25" fill="none" xmlns="http://www.w3.org/2000/svg"><g clip-path="url(#clip0)"><path d="M15.775 5.058h2.684c.96 0 1.777.716 1.904 1.668h0l2.167 16.25h0a1.921 1.921 0 01-1.905 2.174H4.375c-.553 0-1.08-.238-1.444-.655M15.775 5.058l-9.233.15c-.884 0-1.639.66-1.755 1.538l-.15-.02h0l-2.166 16.25s0 0 0 0a1.92 1.92 0 00.46 1.519M15.775 5.058V3.125A3.279 3.279 0 0012.5-.15a3.279 3.279 0 00-3.275 3.275v1.933h6.55zM2.931 24.495s0 0 0 0l.113-.1-.113.1s0 0 0 0zM6.541 6.4h2.684v1.412a.671.671 0 001.342 0V6.4h3.866v1.412a.671.671 0 001.342 0V6.4h2.684a.58.58 0 01.573.502h0l2.166 16.25a.57.57 0 01-.138.458h0a.566.566 0 01-.435.198H4.375a.568.568 0 01-.435-.197.571.571 0 01-.138-.459l2.167-16.25h0a.58.58 0 01.573-.502zm7.892-1.342h-3.866V3.125c0-1.066.867-1.933 1.933-1.933s1.933.867 1.933 1.933v1.933z" fill="#3F3133" stroke="#3F3133" stroke-width=".3"/></g><defs><clipPath id="clip0"><path fill="#fff" d="M0 0h25v25H0z"/></clipPath></defs></svg>