<svg width="25" height="25" viewBox="0 0 25 25" fill="none" xmlns="http://www.w3.org/2000/svg"><path d="M15.948 9.057a.585.585 0 00-.585.586v11.066a.586.586 0 001.17 0V9.643a.585.585 0 00-.585-.586zm-6.908 0a.585.585 0 00-.586.586v11.066a.586.586 0 001.171 0V9.643a.585.585 0 00-.585-.586z" fill="#3F3133"/><path d="M4.005 7.443v14.425c0 .852.312 1.653.858 2.228.544.576 1.3.903 2.092.904h11.078a2.882 2.882 0 002.092-.904c.546-.575.858-1.376.858-2.228V7.443a2.237 2.237 0 00-.573-4.398h-2.998v-.732A2.3 2.3 0 0015.094 0h-5.2a2.3 2.3 0 00-2.318 2.313v.732H4.578a2.237 2.237 0 00-.573 4.398zm14.028 16.386H6.955c-1 0-1.78-.86-1.78-1.961V7.494h14.638v14.374c0 1.101-.78 1.961-1.78 1.961zM8.747 2.313A1.127 1.127 0 019.895 1.17h5.199a1.128 1.128 0 011.147 1.142v.732H8.747v-.732zM4.578 4.216H20.41a1.054 1.054 0 010 2.107H4.578a1.054 1.054 0 110-2.107z" fill="#3F3133"/><path d="M12.494 9.057a.585.585 0 00-.585.586v11.066a.586.586 0 001.17 0V9.643a.585.585 0 00-.585-.586z" fill="#3F3133"/></svg>