<svg width="50" height="50" viewBox="0 0 50 50" fill="none" xmlns="http://www.w3.org/2000/svg"><path d="M33.243 9.31a.92.92 0 00-1.28 0c-.631.647-15.436 15.967-15.436 24.615C16.527 42.789 23.74 50 32.602 50c8.864 0 16.076-7.211 16.076-16.075 0-8.648-14.805-23.968-15.435-24.616zm-.64 38.904c-7.88 0-14.29-6.41-14.29-14.289 0-6.97 11.432-19.638 14.29-22.695C35.46 14.286 46.89 26.95 46.89 33.925c0 7.879-6.41 14.289-14.288 14.289zM19.23 13.62c0-4.68-7.462-12.486-8.314-13.361a.92.92 0 00-1.28 0c-.851.875-8.313 8.682-8.313 13.36 0 4.937 4.016 8.954 8.953 8.954 4.937 0 8.954-4.017 8.954-8.953zm-8.954 7.166c-3.952 0-7.167-3.215-7.167-7.166 0-3.06 4.697-8.769 7.167-11.44 2.47 2.67 7.167 8.378 7.167 11.44 0 3.951-3.215 7.166-7.167 7.166z" fill="#73877B"/><path d="M9.383 16.957a2.682 2.682 0 01-2.68-2.68.893.893 0 10-1.785 0 4.47 4.47 0 004.465 4.466.893.893 0 100-1.786zm23.22 25.899c-4.925 0-8.931-4.006-8.931-8.931a.893.893 0 10-1.786 0c0 5.91 4.807 10.717 10.717 10.717a.893.893 0 100-1.786z" fill="#73877B"/></svg>