<svg width="112" height="184" viewBox="0 0 112 184" fill="none" xmlns="http://www.w3.org/2000/svg"><path d="M35.099 85.603c-.237-.631-.395-1.184-.631-1.816-2.76-6.791-5.443-13.504-8.203-20.295-3.392-8.45-6.073-17.058-7.887-25.981-1.736-8.371-2.682-16.742-2.13-25.27.236-3.396.71-6.792 1.104-10.188 0-.237.079-.553.237-.71.079-.08.394-.08.473 0 .158.236.394.552.473.868 1.578 7.66 4.496 15.004 6.941 22.428 2.366 7.265 4.732 14.451 6.625 21.874 1.341 5.291 2.288 10.661 2.998 16.11.394 3.08.946 6.08 1.34 9.16.474 4.028.947 8.135 1.341 12.162.158 1.659.395 3.238.631 4.896.237 1.264.474 2.606.237 3.949-.079.631.079 1.342.079 1.974 0 .316 0 .632-.08.948-.078.316-.551.474-.788.316a1.844 1.844 0 01-.552-.553c-4.338-4.738-8.676-9.556-13.014-14.294-5.127-5.686-9.701-11.766-13.33-18.558-4.18-7.739-6.862-15.873-8.597-24.48C1.026 31.193.473 24.165.79 17.137c0-.553-.237-1.343.552-1.422.63-.079.71.71.789 1.185 1.42 4.422 2.681 8.923 4.101 13.346 2.682 8.291 5.679 16.425 9.86 24.085 2.05 3.791 4.258 7.502 6.467 11.293 2.287 3.949 4.574 7.976 6.94 11.925 1.657 2.842 3.392 5.606 5.127 8.37.237-.158.316-.236.474-.316zm2.287 3.238v-1.184c-.158-1.027-.316-2.053-.395-3.16-.473-4.184-.867-8.37-1.42-12.555-.393-3.08-.867-6.081-1.34-9.16-.789-5.37-1.656-10.82-2.997-16.11-1.972-7.74-4.496-15.4-7.02-22.98C22.164 17.61 19.876 11.53 18.3 5.29c-.08-.316-.237-.553-.474-1.106-.473 3.001-.71 5.686-.867 8.371-.473 8.292.473 16.426 2.13 24.481 1.813 8.924 4.495 17.531 7.887 25.981 3.233 8.213 6.546 16.347 9.78 24.56.158.395.315.632.63 1.263zm.394 5.686v-1.184c-.157-1.185-.71-2.212-1.34-3.238-2.367-3.633-4.733-7.265-6.941-11.056-3.707-6.239-7.336-12.635-11.043-18.874-3.549-5.923-6.467-12.161-8.991-18.637-2.682-6.95-5.048-14.135-7.178-21.322-.157-.473-.236-.947-.788-1.658v1.974c-.08 5.844.552 11.53 1.577 17.216 1.735 9.16 4.811 17.926 9.465 25.98 3.391 6.003 7.493 11.452 12.146 16.506 4.102 4.5 8.124 9.002 12.147 13.424.236.237.552.395.946.87z" fill="#977777"/><path d="M53.397 34.51c.08-.869.08-1.658.158-2.37.158-1.026.158-1.895-.71-2.684-.315-.316-.394-.948-.552-1.422-.237-1.5-.079-1.816 1.42-2.606.079-.079.157-.158.394-.316.079-.868.079-1.895.158-2.842.079-.79-.08-1.343-.631-1.975-.868-.868-.868-2.053-.789-3.159.079-.947.631-1.579 1.499-1.895.315-.079.63-.158 1.025-.237.079-.71.079-1.342.158-1.974.079-.553.079-1.026.236-1.58.158-.789.631-1.342 1.42-1.5.947-.237 1.893-.553 2.84-.631 2.13-.237 4.18-.316 6.31-.474 2.523-.158 5.126-.316 7.65-.316 4.97 0 10.017.237 14.986.71.947.08 1.814.316 2.682.553 1.025.316 1.656 1.027 1.735 2.133.079.947.158 1.974.158 2.842.157.158.157.237.236.237.868.237 1.893.474 2.209 1.422.315 1.184.473 2.606-.474 3.554-.867.947-.946 1.974-.788 3.08.079.631.079 1.342.157 1.895.08.158.158.315.237.315.631.237 1.262.395 1.42 1.185.158.948.237 2.053-.394 2.685-1.184 1.264-.868 2.685-.71 4.027 0 .395.157.79.236 1.185 1.499.237 2.84.553 4.26.79 1.656.316 3.312.79 4.89 1.58 4.416 2.29 6.783 5.922 6.862 10.897.078 5.29 0 10.503-.079 15.794-.079 9.002-.158 18.005-.158 27.008-.079 17.847-.079 35.694-.158 53.462 0 8.687-.079 17.374-.158 26.06 0 4.028-1.735 7.108-5.047 9.319-2.524 1.737-5.443 2.606-8.44 3.159a67.48 67.48 0 01-12.54 1.184c-7.651.079-15.381.079-23.032-.079-4.18-.079-8.36-.553-12.462-1.5-2.287-.553-4.417-1.343-6.389-2.527-2.997-1.817-4.653-4.502-5.363-7.897-.158-.632-.079-1.343-.079-1.974-.079-17.69-.079-35.379-.157-53.068-.08-22.902-.237-45.803-.316-68.704 0-5.37 2.524-9.082 7.335-11.372 1.972-.948 4.102-1.342 6.231-1.658.789 0 1.578-.158 2.524-.316zm1.104-4.58c-.078.947-.157 1.816-.157 2.606-.237 2.843.078 2.606-2.84 3.158-1.735.316-3.47.711-5.205 1.185-2.051.632-3.865 1.658-5.285 3.317-1.972 2.29-2.997 4.817-2.918 7.897.158 20.216.236 40.432.315 60.57.08 20.295.158 40.669.237 60.965 0 4.343 1.893 7.423 5.521 9.555 2.287 1.342 4.732 1.974 7.256 2.527a66.354 66.354 0 0011.122 1.184c7.571.079 15.143.079 22.636.079 4.101 0 8.124-.394 12.147-1.184 2.76-.474 5.521-1.264 7.966-2.764 3.312-2.053 5.048-4.975 5.048-9.003 0-13.582.157-27.244.236-40.827.079-12.161.079-24.323.079-36.484 0-10.82.079-21.559.158-32.378 0-4.185 0-8.45.079-12.635 0-2.053-.552-3.87-1.578-5.607-1.498-2.527-3.707-4.264-6.546-5.133-1.735-.553-3.55-.869-5.364-1.264-.788-.158-1.735-.158-2.523-.79-.158-1.658-.316-3.316-.474-5.053 1.341-.79 1.657-1.896 1.341-3.238a14.704 14.704 0 01-1.577-.79l-.237-2.369c-.079-.79 0-1.58-.394-2.369-2.445 0-4.89.158-7.414-.079.236-.316.315-.553.394-.553.552-.079 1.183-.079 1.735-.079 1.735 0 3.392 0 5.127-.079 1.183-.079 1.656-.553 1.814-1.737a5.299 5.299 0 000-1.58c-.079-.631-.631-1.026-1.262-.947-.158 0-.394.079-.552.079-1.656.237-3.392.553-5.048.632-4.732.237-9.465-.08-14.197-.553-.552-.08-1.104-.237-1.657-.395 0-.553.316-.632.71-.632 1.657.158 3.234.316 4.89.474 3.786.316 7.572.395 11.437.158 1.025-.079 2.05-.237 3.076-.553.395-1.026.158-2.053.08-3-.159-1.422-.316-1.659-1.657-2.054-.474-.158-1.026-.237-1.578-.316-1.577-.158-3.155-.316-4.732-.395-4.97-.079-9.938-.552-14.986-.157-3.155.236-6.31.315-9.465.552-.946.08-1.814.316-2.681.553-.632.158-1.026.632-1.105 1.264-.157 1.105-.236 2.21-.079 3.316.395.158.79.316 1.105.395 1.656.474 3.312.948 4.89 1.422 5.994 1.816 12.067 3.08 18.298 3.948.947.158 1.972.237 2.919.316.236 0 .552.158.394.632-.316 0-.71.079-1.025.079a101.411 101.411 0 01-16.8-3.08c-3.076-.869-6.152-1.737-9.228-2.685-.71-.237-1.42-.395-2.13-.237a1.173 1.173 0 00-1.025 1.027c-.395 1.737.315 2.921 2.05 3.474 2.445.79 4.97 1.343 7.493 1.817 4.102.71 8.203 1.026 12.383 1.184.395 0 .789.08 1.183.158.158 0 .237.237.395.553-3.865.158-7.493-.316-11.121-.71-3.628-.396-7.178-1.343-10.885-2.29a372.75 372.75 0 01-.236 3.474c0 .79-.316 1.421-1.184 1.58-.236.078-.394.236-.552.394-.236 2.211-.236 2.211 1.183 3.475z" fill="#977777"/><path d="M106.715 88.604v3.001l.474 52.12c.079 7.581.157 15.163.315 22.665.079 2.764-1.183 4.817-3.549 6.159a14.088 14.088 0 01-5.048 1.659c-1.656.237-3.391.395-5.127.395-3.312 0-6.704-.158-10.017-.237-3.391-.079-6.862-.079-10.253-.079-2.76 0-5.521 0-8.282.079l-10.253.237c-2.209 0-4.338-.237-6.468-.79-1.262-.316-2.524-.79-3.628-1.422-2.287-1.263-3.47-3.316-3.392-6.001.08-6.476.158-13.03.158-19.506.158-16.189.237-32.378.394-48.566 0-2.922.158-5.765.08-8.687 0-1.027.315-1.816 1.103-2.37a16.86 16.86 0 012.998-1.816c2.13-1.105 4.495-1.5 6.783-1.895 7.887-1.263 15.775-1.974 23.74-1.816 5.837.158 11.674.71 17.432 1.58 1.656.236 3.234.552 4.81.947a17.461 17.461 0 014.733 1.895c1.262.553 2.209 1.264 2.997 2.448zm-63.966 39.959l-.236 22.112c-.08 5.37-.08 10.819-.158 16.189 0 2.053.867 3.553 2.445 4.659.552.395 1.104.632 1.735.947 1.42.632 2.997.948 4.575 1.185 3.55.474 7.099.395 10.648.237 8.44-.395 16.958-.395 25.397 0 3.628.158 7.256.237 10.806-.237 1.971-.237 3.864-.711 5.6-1.737 1.971-1.106 3.076-2.764 2.997-5.133-.079-3.08-.079-6.16-.079-9.24-.158-17.531-.394-35.142-.552-52.673-.079-4.817-.158-9.634-.079-14.372 0-1.422-.552-2.37-1.735-3.08-.71-.395-1.499-.869-2.288-1.185-1.498-.553-2.997-1.026-4.495-1.342-6.074-1.106-12.226-1.975-18.378-1.975h-6.31c-7.177-.158-14.276.711-21.374 2.054-2.367.395-4.654 1.263-6.784 2.527-1.025.632-1.498 1.5-1.498 2.764 0 4.106-.079 8.134-.158 12.24 0 8.529 0 17.294-.079 26.06zm50.164-92.237c-.158.237-.316.553-.552.71a18.977 18.977 0 01-4.733 2.37c-6.389 2.132-12.935 2.685-19.64 1.658a48.338 48.338 0 01-6.861-1.658 19.273 19.273 0 01-4.417-2.211c-.316-.158-.473-.474-.947-1.106.631.158.947.158 1.105.237 4.18 2.764 8.912 3.712 13.802 4.186 5.285.473 10.49.078 15.617-1.5 1.814-.554 3.55-1.264 5.206-2.291.394-.237.789-.395 1.183-.632l.237.237zm.394-10.503c-.237.316-.237.553-.394.632-.474.237-.947.395-1.499.553-6.23 1.895-12.54 3-19.008 2.685-5.048-.237-10.017-1.185-14.907-2.685-1.105-.316-1.105-.395-1.893-1.185 1.735.08 3.076.869 4.574 1.185 1.578.316 3.234.71 4.812 1.026 1.577.237 3.076.474 4.653.632a47.454 47.454 0 009.465 0 52.085 52.085 0 004.89-.71c1.578-.238 3.076-.633 4.653-.948 1.5-.237 2.919-1.027 4.654-1.185zm-37.544 4.502c.316 0 .71 0 1.026.078a70.159 70.159 0 007.808 1.896c7.099 1.421 14.197 1.263 21.296-.316 2.05-.474 4.101-1.027 6.073-1.58.395-.078.71-.078 1.183.08-.315.157-.552.473-.867.552-2.051.632-4.18 1.264-6.231 1.738-4.26.947-8.519 1.5-12.936 1.342a59.05 59.05 0 01-16.563-3.08c-.315-.079-.63-.395-.946-.553.078 0 .157-.079.157-.157zm1.815-19.111c2.523.316 4.732.631 6.94.79 2.209.157 4.417.236 6.704.315 2.209.08 4.496.08 6.705 0 2.208-.079 4.417-.237 6.704-.316 2.208-.079 4.338-.71 6.625-.552-.236.158-.473.394-.788.473-1.657.316-3.392.632-5.048.79-4.733.553-9.386.553-14.119.474-3.47-.079-6.94-.316-10.41-.869-.868-.158-1.657-.316-2.525-.474-.236.08-.394-.236-.788-.631z" fill="#977777"/><path d="M78.4 48.172c1.499 1.658 2.997 3.237 4.338 4.896 3.234 3.87 5.837 8.134 7.73 12.793a23.545 23.545 0 011.656 5.686c.158.947.158 1.816-.158 2.764-.394 1.184-1.183 1.895-2.445 1.974-.868.079-1.735-.079-2.524-.237-1.025-.237-1.893-.869-2.681-1.58-1.184-1.026-2.051-2.21-2.919-3.474-1.735-2.764-2.84-5.765-3.707-8.845-.867-3.159-1.577-6.396-2.05-9.634-.158-.79-.237-1.658-.553-2.448-.552.079-.552.395-.63.71l-1.184 6.634c-.63 3.238-1.498 6.397-2.76 9.477-.79 1.895-1.736 3.711-2.919 5.37-1.025 1.421-2.287 2.684-3.943 3.553a5.827 5.827 0 01-2.84.71c-1.656-.078-2.681-.868-3.076-2.526-.157-.632-.157-1.343-.079-1.974.158-1.896.71-3.712 1.42-5.528 2.445-6.16 6.152-11.609 10.648-16.426.473-.553 1.025-.948 1.656-1.5-.315-.474-.788-.474-1.183-.474-2.208-.158-4.259-.711-6.31-1.343-4.417-1.263-8.124-3.632-11.042-7.186-.71-.869-1.34-1.974-1.893-3-.473-1.028.158-1.975 1.34-2.054.474 0 .868.079 1.184.553.158.237.316.395.394.71.553 1.422 1.578 2.37 2.682 3.317 2.997 2.527 6.468 3.949 10.175 4.896 2.05.553 4.101.79 6.23.79 2.525 0 5.128.158 7.651-.316 4.417-.869 8.598-2.29 12.226-5.212 1.262-1.026 2.366-2.053 2.997-3.633.473-1.105 1.104-1.342 1.972-1.105.71.237 1.104.79 1.025 1.5a3.49 3.49 0 01-.473 1.264c-1.104 2.132-2.76 3.79-4.654 5.29a20.563 20.563 0 01-7.098 3.791c-2.287.711-4.496 1.343-6.862 1.58-.394 0-.868.158-1.341.237zm-7.178 4.896c-.394-.158-.63 0-.788.237-1.026 1.342-2.05 2.764-3.076 4.106-2.051 2.764-3.55 5.844-4.733 9.082-.394.947-.552 2.053-.788 3.08-.08.552-.158 1.263.473 1.579.63.316 1.104-.158 1.577-.474 1.026-.71 1.736-1.737 2.367-2.922.946-1.816 1.577-3.79 2.05-5.765.71-3 1.656-6.001 2.918-8.923-.078-.158 0-.237 0-.395 0 0-.078 0-.078-.079 0 .237 0 .316.078.474zm4.812-3.08c.473 2.606.867 4.738 1.34 6.95.71 3.237 1.5 6.396 2.761 9.476.789 1.974 1.735 3.79 3.076 5.528 1.026 1.342 2.288 2.527 3.865 3.237.71.316 1.499.474 2.287.395.947-.079 1.657-.632 1.814-1.5.158-.71.237-1.422.158-2.132-.158-1.659-.63-3.238-1.262-4.739-1.577-4.106-3.786-7.976-6.388-11.45-1.341-1.816-2.84-3.475-4.26-5.133-.236-.316-.473-.79-1.262-.632.237.395.474.79.79 1.184 1.182 1.659 2.365 3.317 3.627 4.897 2.367 3.08 4.18 6.475 5.6 10.108.316.947.631 1.895.868 2.843.158.553.158 1.184.079 1.737-.158 1.264-1.105 1.816-2.288 1.343-1.025-.395-1.814-1.106-2.445-1.896a12.781 12.781 0 01-2.13-3.948c-.63-1.738-1.103-3.475-1.577-5.291-.788-2.843-1.656-5.686-2.84-8.371-.551-.948-.788-1.737-1.813-2.606zm-2.209 0c-.473.553-.788.79-.867 1.027-.474.947-.868 1.895-1.262 2.843-1.105 2.763-1.972 5.606-2.682 8.45-.473 1.973-1.104 3.948-2.05 5.764-.632 1.264-1.42 2.37-2.603 3.159-.474.316-1.026.632-1.578.79-.789.236-1.498-.158-1.735-.948-.158-.553-.237-1.185-.158-1.737.158-1.106.473-2.212.868-3.238a41.273 41.273 0 015.758-10.503c1.34-1.737 2.602-3.475 3.864-5.212.158-.237.552-.474.158-.79-.158.08-.394.158-.473.316-.316.237-.552.553-.868.869-3.628 3.948-6.704 8.291-8.991 13.109-.947 1.974-1.815 3.948-2.288 6.08-.236 1.106-.394 2.212-.315 3.317.079 1.58 1.104 2.29 2.681 2.211 1.263-.079 2.288-.553 3.234-1.342a14.586 14.586 0 002.84-3.001c1.183-1.816 2.13-3.79 2.918-5.765 1.262-3.317 2.05-6.791 2.682-10.266.315-1.58.552-3.08.867-5.133zm1.105-2.606c4.101.079 8.045-.71 11.91-2.053 3.785-1.343 7.02-3.554 9.543-6.634.631-.79 1.104-1.737 1.656-2.685.158-.316.08-.631-.315-.79-.316-.157-.631-.078-.868.238a8.615 8.615 0 01-.473.868c-.71.948-1.42 1.895-2.208 2.764-1.657 1.58-3.629 2.764-5.758 3.712-4.496 1.974-9.15 2.764-13.96 2.685-4.733 0-9.308-.948-13.567-2.922-3.234-1.58-6.152-3.475-7.887-6.87-.08-.159-.237-.316-.395-.474-.157-.08-.394-.158-.552-.08-.157.159-.394.395-.394.553-.079.158.079.395.158.553.552.869.946 1.737 1.577 2.448 2.524 3.08 5.68 5.212 9.465 6.555 3.944 1.421 7.966 2.132 12.068 2.132zm3.864 5.449c.08.237.08.474.158.71 1.104 2.844 1.972 5.844 2.76 8.845.395 1.422.868 2.922 1.5 4.265.394 1.026 1.025 1.974 1.656 2.843.473.631 1.104 1.105 1.735 1.5.867.553 1.498.079 1.498-.948a5.48 5.48 0 00-.236-1.58c-.474-1.342-.868-2.763-1.42-4.105-1.735-4.265-4.496-7.977-7.65-11.53zM59.707 12.477a7972.11 7972.11 0 00-.237-9.713c.631-.632 1.262-.71 1.893-.79 2.76-.553 5.6-.79 8.44-1.026 6.23-.553 12.462 0 18.614 1.026.63.08 1.262.316 1.814.474.079.316.237.553.237.71-.08 3.08-.158 6.16-.158 9.32-.789.789-1.735.868-2.682.947-3.313.553-6.625.79-10.017.869-4.969.079-10.017-.08-14.907-.79-1.104-.237-2.05-.316-2.997-1.027zm.789-9.555c-.316 2.685-.158 7.66.315 9.318.552.158 1.105.316 1.657.395 2.602.237 5.205.632 7.808.71 4.811.159 9.544.159 14.355-.315 1.577-.158 3.155-.237 4.653-.869.316-1.5.237-3 .237-4.5 0-1.58.394-3.08-.158-4.74a77.15 77.15 0 00-28.867 0z" fill="#977777"/><path d="M61.6 3.554c1.814.316 3.55.552 5.363.868 1.736.316 3.55.237 5.285.237 1.814.08 3.628 0 5.521 0 1.735 0 3.55 0 5.284-.237 1.815-.237 3.55-.868 5.68-.79-.395.317-.553.632-.79.632-2.444.632-4.89 1.106-7.335 1.264a88.336 88.336 0 01-11.2 0c-2.523-.158-4.969-.632-7.335-1.185-.236-.079-.394-.237-.63-.394.078-.158.078-.316.157-.395zM104.349 89c-.157.789-.631.789-.946.947-3.076 1.026-6.152 1.737-9.386 2.29-4.417.71-8.834 1.184-13.33 1.5-4.732.316-9.465.237-14.197-.158-3.865-.316-7.73-.71-11.515-1.342a61.447 61.447 0 01-9.15-2.132c-.473-.158-1.104-.158-1.34-.79.236-.474.63-.237 1.025-.158 1.893.474 3.786 1.106 5.679 1.422 3.076.552 6.23 1.105 9.307 1.5 5.994.79 11.988 1.106 18.062.79 3.076-.158 6.152-.395 9.228-.711 4.417-.474 8.834-1.185 13.172-2.37.788-.236 1.498-.473 2.287-.63.394-.08.71-.08 1.104-.159z" fill="#977777"/></svg>