<svg width="50" height="50" viewBox="0 0 50 50" fill="none" xmlns="http://www.w3.org/2000/svg"><g clip-path="url(#clip0)" fill="#73877B"><path d="M47.23 5.083a.976.976 0 00-.845-.486H41.68L39.32.494a.976.976 0 00-.846-.49H33.2a.976.976 0 00-.846.488l-2.168 3.756-1.704-.895a2.933 2.933 0 00-2.9-3.349 2.933 2.933 0 00-2.93 2.93 2.933 2.933 0 002.93 2.928c.767 0 1.466-.297 1.99-.781l2.288 1.202 2.496 4.27c.175.3.496.484.843.484h4.7l2.066 3.669L38 17.665a2.93 2.93 0 00-3.63 2.844 2.933 2.933 0 004.192 2.643l1.951 1.952a2.932 2.932 0 002.644 4.192 2.932 2.932 0 002.93-2.929 2.933 2.933 0 00-4.193-2.644l-1.951-1.951a2.927 2.927 0 00-.312-3.033l2.002-3.015h4.752a.978.978 0 00.849-.492l2.638-4.626a.976.976 0 00-.004-.973l-2.638-4.55zM25.582 3.91a.978.978 0 010-1.953.977.977 0 010 1.953zm6.109 1.636l2.072-3.59h4.147l2.073 3.608-2.067 3.52h-4.157l-2.068-3.538zm4.631 14.963a.978.978 0 011.953 0 .977.977 0 01-1.953 0zm7.812 5.858a.977.977 0 01-1.953 0 .977.977 0 011.953 0zm1.684-12.596h-4.137l-2.082-3.696 2.07-3.53h4.154l2.074 3.581-2.079 3.645zm-26.973 6.347a.977.977 0 00-.804.421c-.639.926-2.126 3.212-2.126 4.461a2.933 2.933 0 002.93 2.93A2.933 2.933 0 0021.774 25c0-1.249-1.487-3.535-2.126-4.46a.977.977 0 00-.803-.422zm0 5.858a.977.977 0 01-.977-.975c.008-.298.414-1.15.977-2.097.562.947.968 1.797.976 2.097a.977.977 0 01-.976.975zm0 24.02a.976.976 0 100-1.953.976.976 0 000 1.953z"/><path d="M25.973 22.807V14.26h.976c.54 0 .976-.438.976-.977V9.378a.976.976 0 00-.976-.977H10.74a.976.976 0 00-.976.977v3.905c0 .54.437.977.977.977h.976v8.547L.464 44.244a3.91 3.91 0 003.442 5.752H14.45a.976.976 0 000-1.953H3.906a1.955 1.955 0 01-1.72-2.878l5.972-11.377h21.373l5.973 11.377a1.955 1.955 0 01-1.72 2.878H23.239a.976.976 0 100 1.953h10.545a3.91 3.91 0 003.442-5.752L25.973 22.807zM11.716 10.354h14.255v1.953H11.717v-1.953zM9.183 31.835l4.375-8.334a.976.976 0 00.112-.454V14.26h10.35v8.787c0 .158.038.314.112.454l4.374 8.334H9.183z"/></g><defs><clipPath id="clip0"><path fill="#fff" d="M0 0h50v50H0z"/></clipPath></defs></svg>