<svg width="50" height="50" viewBox="0 0 50 50" fill="none" xmlns="http://www.w3.org/2000/svg"><path d="M44.964 19.127S50.632 9.962 42.21 7.27a5.433 5.433 0 00-1.66-.26c-1.775 0-3.514.86-5.142 2.191.617-2.683.427-5.183-1.285-6.951C32.54.61 30.984 0 29.548 0c-4.131 0-7.273 5.037-7.273 5.037s-3.018-1.864-6.098-1.866c-2.29 0-4.613 1.03-5.759 4.62-.75 2.344.188 4.668 1.93 6.8-.894-.204-1.767-.32-2.6-.32-1.667 0-3.172.464-4.351 1.605-6.355 6.148 2.789 11.85 2.789 11.85s-5.667 9.167 2.754 11.858c.555.177 1.11.261 1.659.261.842 0 1.675-.195 2.491-.54a37.457 37.457 0 01-2.194 1.96C9.326 44.21 5.226 46.466.713 47.97a1.04 1.04 0 10.658 1.976c4.775-1.591 9.113-3.982 12.892-7.106a40.216 40.216 0 003.163-2.92c-.066 1.8.381 3.428 1.599 4.687 1.585 1.639 3.14 2.246 4.576 2.246 4.133 0 7.273-5.036 7.273-5.036s3.018 1.866 6.099 1.866c2.288 0 4.612-1.03 5.76-4.619.749-2.345-.188-4.669-1.93-6.802.892.206 1.766.322 2.598.322 1.667 0 3.172-.465 4.353-1.607 6.354-6.145-2.79-11.849-2.79-11.849zM12.402 8.425c.387-1.214.947-2.082 1.66-2.581.566-.396 1.257-.588 2.114-.588 2.399 0 4.917 1.502 5.007 1.557l1.756 1.098 1.105-1.77c.006-.01.68-1.07 1.766-2.124.913-.882 2.3-1.931 3.739-1.931 1.022 0 2.029.526 3.078 1.61.927.958 1.218 2.372.895 4.322-.309 1.86-1.17 4.087-2.556 6.622-1.631 2.981-3.612 5.67-4.773 7.157-1.687-.811-4.626-2.33-7.404-4.267-2.38-1.662-4.15-3.282-5.26-4.816-1.165-1.612-1.535-3.015-1.127-4.289zm.196 29.337c-.349 0-.685-.052-1.025-.16-1.576-.506-2.537-1.27-2.934-2.338-.479-1.286-.137-2.9.235-4.025A13.062 13.062 0 019.96 28.82l1.114-1.76-1.784-1.1c-.056-.037-1.046-.676-2.044-1.687-.833-.844-1.856-2.138-1.997-3.504-.116-1.133.405-2.244 1.596-3.395.71-.686 1.66-1.02 2.903-1.02 1.727 0 3.917.636 6.45 1.86 2.58 1.982 5.474 3.623 7.587 4.71.44.326.829.625 1.16.883-.182.377-.398.817-.647 1.303-1.41 1.91-3.277 4.665-4.71 7.583-2.559 3.288-4.994 5.068-6.99 5.068zm28.15.666c-.388 1.215-.946 2.085-1.66 2.582-.566.397-1.258.589-2.115.589-2.396 0-4.91-1.5-5.005-1.556l-1.757-1.1-1.104 1.77c-.007.01-.68 1.072-1.768 2.123-.91.882-2.3 1.933-3.738 1.933-1.022 0-2.03-.527-3.078-1.61-.926-.959-1.219-2.372-.895-4.323.31-1.86 1.17-4.088 2.557-6.622 1.631-2.98 3.61-5.67 4.771-7.158.378.182.818.398 1.305.647 1.91 1.412 4.664 3.279 7.583 4.712 1.645 1.28 2.911 2.528 3.778 3.726 1.165 1.611 1.533 3.013 1.126 4.287zm5.557-8.948c-.71.686-1.659 1.02-2.904 1.02-2.585 0-6.205-1.423-10.467-4.116a59.55 59.55 0 01-4.728-3.337c.181-.378.4-.82.648-1.308 1.41-1.91 3.276-4.663 4.709-7.58 2.558-3.288 4.994-5.067 6.988-5.067.35 0 .685.053 1.025.162 1.578.503 2.538 1.268 2.936 2.336.479 1.286.136 2.9-.237 4.026-.445 1.35-1.05 2.36-1.084 2.419l-1.1 1.756 1.771 1.104c.01.007.975.62 1.98 1.622.858.858 1.91 2.17 2.057 3.559.12 1.136-.401 2.249-1.594 3.404z" fill="#73877B"/></svg>