<svg width="50" height="50" viewBox="0 0 50 50" fill="none" xmlns="http://www.w3.org/2000/svg"><path d="M49.219 27.344H.78v1.562h48.44v-1.562zm-2.249 4.458a4.552 4.552 0 00-6.44 0l-.915.916a2.991 2.991 0 01-4.23 0l-.916-.916a4.553 4.553 0 00-6.439 0l-.915.916a2.991 2.991 0 01-4.23 0l-.916-.916a4.552 4.552 0 00-6.439 0l-.915.916a2.991 2.991 0 01-4.23 0l-.915-.916a4.553 4.553 0 00-6.44 0l-2.8 2.802 1.105 1.105 2.801-2.802a2.991 2.991 0 014.23 0l.915.916a4.553 4.553 0 006.44 0l.915-.916a2.991 2.991 0 014.23 0l.916.916a4.553 4.553 0 006.439 0l.915-.916a2.991 2.991 0 014.23 0l.916.916a4.553 4.553 0 006.438 0l.916-.916a2.991 2.991 0 014.23 0l2.801 2.802 1.105-1.105-2.802-2.802z" fill="#73877B"/><path d="M6.25 35.156a3.125 3.125 0 100 6.25 3.125 3.125 0 000-6.25zm0 4.688a1.562 1.562 0 110-3.125 1.562 1.562 0 010 3.125zm12.5-4.688a3.125 3.125 0 100 6.25 3.125 3.125 0 000-6.25zm0 4.688a1.563 1.563 0 110-3.126 1.563 1.563 0 010 3.126zm12.5-4.688a3.125 3.125 0 100 6.25 3.125 3.125 0 000-6.25zm0 4.688a1.563 1.563 0 110-3.126 1.563 1.563 0 010 3.126zm12.5-4.688a3.125 3.125 0 100 6.25 3.125 3.125 0 000-6.25zm0 4.688a1.563 1.563 0 110-3.126 1.563 1.563 0 010 3.126zm-31.25.703a2.343 2.343 0 100 4.686 2.343 2.343 0 000-4.686zm0 3.125a.781.781 0 110-1.562.781.781 0 010 1.562zM25 40.625a2.344 2.344 0 100 4.688 2.344 2.344 0 000-4.688zm0 3.125a.78.78 0 110-1.561.78.78 0 010 1.561zm12.5-3.125a2.344 2.344 0 100 4.688 2.344 2.344 0 000-4.688zm0 3.125a.78.78 0 110-1.561.78.78 0 010 1.561zm-18.75 5.469a1.563 1.563 0 100-3.125 1.563 1.563 0 000 3.125zm12.5 0a1.563 1.563 0 100-3.125 1.563 1.563 0 000 3.125zm12.5 0a1.563 1.563 0 100-3.125 1.563 1.563 0 000 3.125zm-37.5 0a1.563 1.563 0 100-3.125 1.563 1.563 0 000 3.125zm10.938-35.938a7.747 7.747 0 009.104 7.693 2.334 2.334 0 004.177-1.443 2.312 2.312 0 00-.088-.6 7.78 7.78 0 00-6.673-13.343 2.327 2.327 0 00-4.09 2.044 7.778 7.778 0 00-2.43 5.65zm10.937 7.031a.78.78 0 110-1.56.78.78 0 010 1.56zm3.125-7.03a6.224 6.224 0 01-1.763 4.35 2.333 2.333 0 00-3.7 1.848 6.25 6.25 0 01-5.273-10.55 2.332 2.332 0 003.7-1.848 6.257 6.257 0 017.037 6.2zM21.875 6.25a.781.781 0 110 1.562.781.781 0 010-1.562z" fill="#73877B"/><path d="M21.094 13.281a3.905 3.905 0 107.81 0 3.905 3.905 0 00-7.81 0zm6.25 0a2.344 2.344 0 11-4.689 0 2.344 2.344 0 014.689 0z" fill="#73877B"/><path d="M14.844 19.531c.078-.003.157-.011.234-.023a11.745 11.745 0 003.695 3.695c-.011.078-.02.156-.023.235a2.339 2.339 0 004.236 1.37 11.496 11.496 0 0010.8-3.799c.191.054.39.082.589.085a2.34 2.34 0 001.684-3.967c.434-1.236.657-2.536.66-3.846a11.774 11.774 0 00-6.272-10.37 2.325 2.325 0 00-4.124-1.266c-.44-.052-.88-.08-1.323-.082a11.648 11.648 0 00-8.786 3.99 2.293 2.293 0 00-.589-.084 2.339 2.339 0 00-1.684 3.967 11.231 11.231 0 00-.468 5.86 2.339 2.339 0 001.37 4.235zm-.781-2.343a.78.78 0 111.56 0 .78.78 0 01-1.56 0zm7.03 7.03a.782.782 0 11.001-1.563.782.782 0 010 1.564zm13.282-4.687a.781.781 0 110-1.562.781.781 0 010 1.562zm-6.25-17.187a.78.78 0 110 1.562.78.78 0 010-1.562zM25 3.125c.26 0 .52.01.781.03a2.338 2.338 0 004.258 1.31 10.211 10.211 0 015.117 8.816 10.1 10.1 0 01-.508 3.153 2.398 2.398 0 00-.273-.028 2.344 2.344 0 00-2.344 2.344c.002.494.16.976.454 1.373A10.093 10.093 0 0125 23.437a10.232 10.232 0 01-1.577-.136 2.333 2.333 0 00-3.966-1.537 10.14 10.14 0 01-2.94-2.936 2.333 2.333 0 00-1.537-3.966 10.245 10.245 0 01-.136-1.58 10.1 10.1 0 01.508-3.153c.09.014.182.023.273.027a2.335 2.335 0 001.89-3.718A10.1 10.1 0 0125 3.125zm-9.375 3.906a.78.78 0 110 1.562.78.78 0 010-1.562z" fill="#73877B"/></svg>