<svg width="70" height="70" viewBox="0 0 70 70" xmlns="http://www.w3.org/2000/svg"><path d="M68.185 12.227H25.043v-1.705a4.543 4.543 0 00-4.537-4.538h-7.042a4.543 4.543 0 00-4.537 4.538v1.705H1.815a1.815 1.815 0 000 3.63h7.112v1.706a4.542 4.542 0 004.537 4.537h7.041a4.543 4.543 0 004.538-4.537v-1.706h43.142a1.815 1.815 0 000-3.63zm-46.772 5.336c0 .5-.407.907-.907.907h-7.042a.909.909 0 01-.907-.907v-7.041c0-.5.407-.908.907-.908h7.042c.5 0 .907.407.907.908v7.04zm46.772 14.88h-7.112v-1.707a4.543 4.543 0 00-4.537-4.537h-7.041a4.543 4.543 0 00-4.538 4.537v1.707H1.815a1.815 1.815 0 100 3.63h43.142v1.704a4.542 4.542 0 004.537 4.538h7.041a4.542 4.542 0 004.538-4.538v-1.704h7.112a1.815 1.815 0 000-3.63zm-10.742 5.335c0 .5-.407.907-.907.907h-7.042a.909.909 0 01-.907-.907v-7.042c0-.5.407-.907.907-.907h7.041c.5 0 .908.407.908.907v7.042zm10.742 16.364H37.793v-1.705a4.542 4.542 0 00-4.537-4.537h-7.041a4.543 4.543 0 00-4.538 4.537v1.705H1.815a1.815 1.815 0 000 3.63h19.862v1.706a4.543 4.543 0 004.538 4.538h7.04a4.543 4.543 0 004.538-4.538v-1.706h30.392a1.815 1.815 0 000-3.63zm-34.022 5.336c0 .5-.407.908-.907.908h-7.041a.909.909 0 01-.908-.908v-7.04a.91.91 0 01.908-.909h7.04a.91.91 0 01.908.908v7.041z"/></svg>