<svg width="73" height="73" viewBox="0 0 73 73" xmlns="http://www.w3.org/2000/svg"><path d="M44.55 47.44h-16.1c-1.214 0-2.2.988-2.2 2.201v4.938c0 1.214.986 2.2 2.2 2.2h16.1c1.214 0 2.2-.986 2.2-2.2v-4.938c0-1.213-.986-2.2-2.2-2.2zm-.629 6.51H29.078v-3.68h14.843v3.68z"/><path d="M72.284 35.21l.022-.01-10.608-20.974a4.984 4.984 0 00-4.47-2.749h-2.016v-1.95c0-.78-.633-1.414-1.414-1.414H19.202c-.78 0-1.414.633-1.414 1.415v1.95h-2.016a4.985 4.985 0 00-4.47 2.748L.694 35.2l.022.01A4.925 4.925 0 000 37.776v22.157a4.96 4.96 0 004.955 4.955h63.09A4.96 4.96 0 0073 59.932V37.775c0-.938-.262-1.816-.716-2.564zM55.212 14.622h2.016c.707 0 1.345.392 1.664 1.024L67.58 32.82h-5.907v-5.285c0-.781-.634-1.415-1.415-1.415h-1.75v-7.588c0-.782-.634-1.415-1.415-1.415h-1.88V14.62zm3.631 14.329v3.87h-7.465a3.268 3.268 0 00-2.975 1.922l-2.038 4.521a.12.12 0 01-.109.07H26.744a.12.12 0 01-.109-.07l-2.038-4.52a3.269 3.269 0 00-2.975-1.923h-7.465v-3.87h44.686zM20.617 10.942h31.766v6.175H20.617v-6.175zm35.061 9.004v6.174H17.322v-6.174h38.356zm-41.57-4.301a1.856 1.856 0 011.664-1.024h2.016v2.496h-1.881c-.781 0-1.415.633-1.415 1.414v7.59h-1.75c-.781 0-1.415.633-1.415 1.414v5.285H5.42l8.688-17.175zm53.937 46.098H4.955a1.813 1.813 0 01-1.811-1.81V37.774c0-.999.812-1.811 1.81-1.811h16.668a.12.12 0 01.109.07l2.038 4.521a3.268 3.268 0 002.975 1.922h19.512c1.28 0 2.449-.754 2.975-1.922l2.038-4.52a.12.12 0 01.109-.071h16.667c.999 0 1.811.812 1.811 1.81v22.158c0 1-.812 1.811-1.81 1.811z"/></svg>