<svg width="70" height="70" viewBox="0 0 70 70" fill="none" xmlns="http://www.w3.org/2000/svg"><path d="M61.485 32.79a1.87 1.87 0 00-3.731.27c.046.636.069 1.29.069 1.94 0 14.91-12.13 27.041-27.041 27.041C15.872 62.041 3.74 49.911 3.74 35c0-14.91 12.13-27.041 27.04-27.041 5.906 0 11.514 1.869 16.218 5.404a1.87 1.87 0 002.248-2.99c-5.358-4.026-11.743-6.154-18.465-6.154C13.809 4.219 0 18.027 0 35s13.809 30.782 30.782 30.782S61.563 51.973 61.563 35c0-.74-.026-1.483-.078-2.21z" fill="#fff"/><path d="M67.867 8.445c-2.845-2.845-7.474-2.845-10.319 0L30.599 35.393l-9.553-9.553c-2.845-2.845-7.473-2.845-10.318 0-2.845 2.845-2.845 7.474 0 10.319L27.18 52.612a4.82 4.82 0 003.418 1.414 4.82 4.82 0 003.42-1.414l33.848-33.849c2.844-2.844 2.844-7.473 0-10.318zm-2.645 7.674L31.373 49.967a1.096 1.096 0 01-1.547 0L13.373 33.514a3.56 3.56 0 010-5.028 3.543 3.543 0 012.514-1.04c.91 0 1.821.346 2.514 1.04l9.828 9.827a3.331 3.331 0 002.37.982 3.33 3.33 0 002.371-.982L60.193 11.09a3.56 3.56 0 015.029 0 3.56 3.56 0 010 5.029z" fill="#fff"/></svg>