<svg width="70" height="70" viewBox="0 0 70 70" xmlns="http://www.w3.org/2000/svg"><path d="M37.044 41.417a8.035 8.035 0 00-6.25-3.386 1.437 1.437 0 00-.16-.01 6.183 6.183 0 01-6.133-5.458 11.648 11.648 0 002.495-2.513c1.506-2.04 2.484-4.587 2.846-7.342a1.45 1.45 0 00.272-.421c.637-1.518.96-3.14.96-4.818 0-6.456-4.88-11.709-10.88-11.709a10.12 10.12 0 00-4.48 1.048 8.009 8.009 0 00-1.553.286C9.145 8.543 6.31 14.608 7.84 20.613c.154.604.35 1.198.583 1.765.063.155.152.292.257.41.578 4.242 2.585 7.77 5.33 9.767a6.184 6.184 0 01-6.134 5.467 1.5 1.5 0 00-.144.007C3.443 38.181 0 41.715 0 46.042v8.632c0 .805.653 1.458 1.458 1.458h25.765a1.458 1.458 0 000-2.916H2.916V46.04a5.11 5.11 0 015.104-5.103c.049 0 .097-.003.144-.008a9.034 9.034 0 002.989-.605l6.904 9.964a1.458 1.458 0 002.397 0l6.904-9.964a9.035 9.035 0 002.988.605c.048.005.096.008.145.008 1.655 0 3.214.808 4.171 2.162a1.456 1.456 0 002.032.349 1.458 1.458 0 00.35-2.032zM14.97 9.895a5.18 5.18 0 011.202-.195 1.46 1.46 0 00.613-.166 7.268 7.268 0 013.409-.858c4.302 0 7.817 3.787 7.957 8.5a5.205 5.205 0 00-3.149-1.058h-7.626a1.745 1.745 0 01-1.62-1.094 1.712 1.712 0 00-3.243.213 10.022 10.022 0 01-2.011 3.89c-.756-4.228 1.148-8.273 4.468-9.232zm-3.42 12.35a13.025 13.025 0 003.024-4.146l.015.011c.81.605 1.774.924 2.787.924h7.626c.916 0 1.707.536 2.083 1.31-.01 3.029-.873 5.859-2.435 7.973-1.472 1.993-3.388 3.09-5.395 3.09-1.857 0-3.665-.959-5.09-2.7-1.384-1.69-2.3-3.965-2.615-6.462zm7.705 24.653l-5.58-8.054a9.104 9.104 0 003.05-4.91 8.447 8.447 0 005.062.005 9.105 9.105 0 003.049 4.905l-5.58 8.054z"/><path d="M62.267 46.136a1.468 1.468 0 00-.144-.007 6.184 6.184 0 01-6.135-5.472c1.786-1.3 3.259-3.25 4.23-5.622a1.458 1.458 0 002.544.47c2.034-2.613 3.092-6.014 2.978-9.576-.112-3.494-1.34-6.775-3.46-9.237-2.169-2.52-5.033-3.924-8.067-3.953-.161-.006-.561.007-.626.011a10.922 10.922 0 00-4.902-.983c-3.504.112-6.726 1.858-9.074 4.917-2.282 2.972-3.467 6.849-3.337 10.917.022.689.077 1.323.165 1.928a17.604 17.604 0 001.419 4.934 1.458 1.458 0 002.57.155c.117-.192.268-.431.435-.666.65 1.975 1.644 3.75 2.905 5.15.539.598 1.12 1.118 1.732 1.561a6.184 6.184 0 01-6.134 5.466 1.5 1.5 0 00-.144.007c-4.29.152-7.733 3.687-7.733 8.013v8.632c0 .806.653 1.458 1.458 1.458h35.595c.805 0 1.458-.653 1.458-1.458V54.15c0-4.326-3.443-7.86-7.733-8.013zM39.664 30.847a15.407 15.407 0 01-.337-1.726 14.281 14.281 0 01-.137-1.613c-.109-3.396.862-6.61 2.734-9.048 1.806-2.353 4.24-3.695 6.854-3.778.087-.003 1.967-.109 3.886.858.214.108.461.158.702.152.028-.001.776-.037.798-.036 2.19.014 4.288 1.058 5.907 2.939 1.685 1.959 2.664 4.596 2.754 7.427a12.696 12.696 0 01-.624 4.408 13.868 13.868 0 00-.46-1.084c-1.409-2.996-3.779-5.316-6.674-6.534a1.458 1.458 0 00-1.933.838 10.81 10.81 0 01-.7 1.519c-.763 1.365-2.302 2.177-4.014 2.117a11.515 11.515 0 00-4.436.716c-1.156.437-3.1 1.532-4.32 2.845zm3.587.794a8.653 8.653 0 011.758-.908 8.6 8.6 0 013.31-.532c2.816.096 5.362-1.286 6.661-3.609.08-.143.158-.288.233-.434 1.33.82 2.466 1.974 3.321 3.376a1.44 1.44 0 00-.017.13c-.224 2.767-1.178 5.307-2.688 7.15-1.426 1.742-3.234 2.702-5.09 2.702-3.434 0-6.488-3.264-7.488-7.875zm4.964 10.399c.82.256 1.667.392 2.523.392.873 0 1.723-.136 2.537-.392a9.123 9.123 0 004.35 5.81 7.154 7.154 0 01-6.88 5.23 7.154 7.154 0 01-6.88-5.23 9.121 9.121 0 004.35-5.81zm18.869 19.283H34.406V54.15a5.11 5.11 0 015.104-5.104 1.5 1.5 0 00.144-.007 9.086 9.086 0 001.473-.165c1.267 4.158 5.143 7.124 9.618 7.124 4.475 0 8.35-2.966 9.618-7.124.478.094.97.15 1.473.165a1.5 1.5 0 00.144.007 5.11 5.11 0 015.104 5.104v7.174z"/></svg>