<svg width="70" height="70" viewBox="0 0 70 70" xmlns="http://www.w3.org/2000/svg"><path d="M64.56 27.578a4.588 4.588 0 001.168-4.733A4.587 4.587 0 0062 19.704l-15.316-2.226a.923.923 0 01-.696-.505L39.14 3.094A4.588 4.588 0 0035 .521a4.59 4.59 0 00-4.14 2.573l-6.85 13.88a.924.924 0 01-.694.504L7.999 19.704a4.588 4.588 0 00-3.726 3.141 4.587 4.587 0 001.168 4.733L16.524 38.38a.924.924 0 01.265.817l-2.616 15.255a4.588 4.588 0 001.836 4.515 4.588 4.588 0 004.862.351l13.7-7.202a.923.923 0 01.859 0l13.7 7.203a4.617 4.617 0 002.152.535 4.6 4.6 0 002.709-.887 4.588 4.588 0 001.836-4.515l-2.616-15.255a.924.924 0 01.265-.817L64.56 27.578zM49.57 39.823l2.617 15.255a.9.9 0 01-.368.902.9.9 0 01-.972.07l-13.7-7.202a4.616 4.616 0 00-4.296 0l-13.7 7.202a.9.9 0 01-.972-.07.9.9 0 01-.367-.903l2.617-15.254a4.615 4.615 0 00-1.328-4.086L8.019 24.933a.9.9 0 01-.234-.946.9.9 0 01.746-.628l15.316-2.226a4.616 4.616 0 003.476-2.525l6.85-13.88A.9.9 0 0135 4.214a.9.9 0 01.827.514l6.85 13.88a4.615 4.615 0 003.476 2.525l15.316 2.226a.9.9 0 01.745.628.9.9 0 01-.233.947L50.899 35.736a4.615 4.615 0 00-1.328 4.086zm7.002-36.73a1.847 1.847 0 00-2.58.409l-1.96 2.697A1.846 1.846 0 0055.02 8.37l1.96-2.697c.6-.826.417-1.98-.408-2.58zM17.96 6.189L16 3.49a1.847 1.847 0 00-2.988 2.17l1.96 2.698a1.844 1.844 0 002.58.409 1.846 1.846 0 00.407-2.58zM6.775 41.95a1.847 1.847 0 00-2.327-1.186l-3.171 1.03a1.847 1.847 0 101.141 3.513l3.171-1.031a1.846 1.846 0 001.186-2.327zM35 62.451c-1.02 0-1.846.827-1.846 1.847v3.334a1.847 1.847 0 103.693 0v-3.334c0-1.02-.827-1.847-1.846-1.847zm33.724-20.654l-3.172-1.03a1.847 1.847 0 00-1.141 3.512l3.171 1.03a1.846 1.846 0 101.142-3.512z"/></svg>