<svg width="22" height="18" viewBox="0 0 22 18" fill="none"><path d="M21.476 2.07c-.79.35-1.638.587-2.53.694A4.417 4.417 0 0020.883.326a8.797 8.797 0 01-2.798 1.069 4.408 4.408 0 00-7.508 4.02A12.512 12.512 0 011.495.81 4.407 4.407 0 002.86 6.693a4.395 4.395 0 01-1.995-.551v.056a4.408 4.408 0 003.534 4.321 4.438 4.438 0 01-1.99.076 4.409 4.409 0 004.116 3.058 8.842 8.842 0 01-5.472 1.887A9.24 9.24 0 010 15.48a12.461 12.461 0 006.753 1.98c8.106 0 12.537-6.714 12.537-12.536 0-.19-.005-.38-.013-.57a8.955 8.955 0 002.197-2.28l.002-.002z"/></svg>