<svg width="20" height="20" viewBox="0 0 20 20" fill="none"><path d="M19.995 5.103a7.695 7.695 0 00-.2-1.826c-.264-1.092-.885-1.925-1.817-2.536a4.184 4.184 0 00-1.564-.605A8.744 8.744 0 0015.111.01L15.007 0H4.989L4.61.022c-.622.036-1.241.102-1.827.333C1.668.797.865 1.565.394 2.672c-.16.374-.243.771-.302 1.174a8.845 8.845 0 00-.084.983c0 .027-.005.052-.008.078v10.187l.022.354c.042.679.129 1.353.415 1.977.541 1.184 1.448 1.962 2.695 2.335.35.106.713.156 1.077.19.463.044.925.05 1.39.05h9.191c.437 0 .874-.028 1.308-.083.685-.089 1.33-.292 1.913-.676a4.205 4.205 0 001.567-1.839c.155-.35.244-.725.308-1.104.094-.562.115-1.131.114-1.7-.002-3.167 0-6.33-.003-9.495h-.002zm-5.353 3.325v4.76c0 .348-.048.69-.203 1.006-.242.492-.633.802-1.156.95a3.85 3.85 0 01-.892.144 1.555 1.555 0 01-1.47-2.268 1.56 1.56 0 01.716-.697c.269-.133.558-.209.848-.27.315-.069.632-.128.945-.2.228-.053.38-.192.425-.43a.756.756 0 00.017-.161c0-1.513 0-3.026-.002-4.537a.604.604 0 00-.022-.154c-.033-.125-.125-.202-.253-.195-.133.008-.265.03-.396.055-.633.125-1.267.253-1.9.38l-1.937.392-1.145.232c-.014.002-.027.008-.04.01-.231.065-.315.17-.325.409-.002.035 0 .071 0 .108-.002 2.169 0 4.338-.003 6.505 0 .35-.039.697-.179 1.023-.232.533-.642.867-1.195 1.028a3.704 3.704 0 01-.896.143c-.8.03-1.462-.5-1.6-1.287a1.555 1.555 0 01.962-1.73c.297-.124.608-.193.923-.258.24-.05.48-.096.717-.147.319-.07.486-.27.5-.595v-.125l.001-7.403c0-.103.011-.209.035-.309.059-.237.228-.373.455-.431.213-.055.43-.094.645-.138.611-.125 1.222-.247 1.834-.37l1.892-.383c.558-.112 1.116-.225 1.675-.336.183-.036.368-.073.552-.088.258-.021.436.141.462.401.006.061.01.124.01.186v4.78z"/></svg>