<svg width="18" height="20" viewBox="0 0 18 20" fill="none"><path d="M9.455.017C10.585 0 11.708.01 12.83 0c.068 1.276.543 2.575 1.51 3.477.966.924 2.331 1.348 3.66 1.49v3.357c-1.245-.04-2.496-.29-3.626-.807-.492-.215-.95-.492-1.399-.775-.006 2.435.01 4.867-.016 7.292a6.202 6.202 0 01-1.168 3.284c-1.129 1.599-3.089 2.64-5.102 2.673-1.234.068-2.468-.257-3.52-.856-1.743-.992-2.97-2.81-3.15-4.76a13.457 13.457 0 01-.01-1.24 6.181 6.181 0 012.23-4.134C3.669 7.8 5.67 7.227 7.546 7.565c.018 1.235-.034 2.468-.034 3.702-.856-.267-1.857-.192-2.606.31a2.9 2.9 0 00-1.177 1.458c-.18.423-.128.892-.118 1.34.206 1.368 1.568 2.518 3.022 2.393.964-.01 1.888-.55 2.39-1.34.163-.277.345-.56.355-.886.085-1.49.05-2.975.061-4.466.007-3.36-.01-6.71.016-10.058V.017z"/></svg>