<svg width="24" height="24" viewBox="0 0 24 24" fill="none"><path d="M21.78 12.15c-.249-1.077-1.13-1.872-2.19-1.99-2.512-.28-5.056-.282-7.586-.28-2.532-.002-5.075 0-7.587.28-1.06.118-1.941.913-2.19 1.99-.352 1.535-.357 3.21-.357 4.79s0 3.254.354 4.788c.247 1.077 1.128 1.872 2.189 1.99 2.512.282 5.054.283 7.586.282 2.532.001 5.074 0 7.587-.281 1.06-.119 1.941-.914 2.19-1.99.352-1.535.354-3.21.354-4.79s.002-3.254-.35-4.789zM7.65 13.34H6.182v7.791H4.82V13.34H3.38v-1.277h4.27v1.277zm3.698 7.791h-1.225v-.737c-.486.558-.949.83-1.399.83-.394 0-.666-.16-.788-.502-.067-.204-.108-.527-.108-1.004v-5.343h1.224v4.974c0 .287 0 .436.01.477.03.19.123.286.287.286.246 0 .503-.19.774-.573v-5.164h1.225v6.756zM16 19.104c0 .624-.042 1.075-.124 1.361-.164.503-.491.76-.978.76-.436 0-.856-.243-1.266-.748v.655h-1.224v-9.069h1.224v2.962c.396-.487.816-.733 1.266-.733.487 0 .815.256.978.762.082.272.124.719.124 1.359v2.69zm4.62-1.128h-2.448v1.198c0 .625.204.938.625.938.302 0 .477-.164.547-.491.011-.067.027-.339.027-.83h1.25v.179c0 .395-.016.666-.027.789a1.745 1.745 0 01-.286.733c-.339.49-.841.733-1.48.733-.641 0-1.129-.23-1.482-.692-.26-.338-.393-.871-.393-1.59v-2.366c0-.722.118-1.25.378-1.592.354-.462.84-.692 1.466-.692.615 0 1.102.23 1.445.692.256.342.379.87.379 1.592v1.4z"/><path d="M18.786 15.394c-.409 0-.614.313-.614.938v.625h1.224v-.625c0-.625-.205-.938-.61-.938zm-4.543 0c-.202 0-.406.096-.61.298v4.118c.204.205.408.302.61.302.353 0 .532-.302.532-.912v-2.884c0-.609-.18-.922-.532-.922z"/><path d="M14.927 9.257c.45 0 .92-.275 1.413-.839v.745h1.237V2.334H16.34v5.22c-.274.387-.534.578-.781.578-.166 0-.264-.097-.29-.29-.016-.04-.016-.19-.016-.48V2.334H14.02v5.4c0 .482.041.808.11 1.015.124.346.398.508.797.508zM6.313 5.452v3.71h1.372v-3.71L9.335 0H7.948l-.936 3.598L6.038 0H4.594c.29.85.59 1.703.88 2.553.44 1.278.714 2.241.839 2.899z" fill="#fff"/><path d="M11.174 9.256c.62 0 1.102-.233 1.444-.699.26-.341.384-.88.384-1.605V4.56c0-.73-.124-1.264-.384-1.609-.342-.467-.824-.7-1.444-.7-.616 0-1.098.233-1.44.7-.263.345-.387.879-.387 1.609v2.39c0 .726.124 1.265.387 1.606.342.466.824.7 1.44.7zm-.59-4.943c0-.632.191-.947.59-.947.4 0 .59.315.59.947v2.872c0 .632-.19.948-.59.948-.399 0-.59-.316-.59-.948V4.313z"/></svg>