<svg width="26" height="28" viewBox="0 0 26 28" fill="none" xmlns="http://www.w3.org/2000/svg"><g clip-path="url(#clip0)"><path d="M21.575 14.727c-.42-.554-.3-.8 0-1.295.005-.006 3.475-5.01 3.832-6.706l.003-.001c.177-.618 0-1.073-.86-1.073h-2.842c-.724 0-1.057.39-1.236.827 0 0-1.448 3.615-3.495 5.958-.66.677-.966.894-1.327.894-.178 0-.454-.217-.454-.835V6.725c0-.742-.203-1.073-.802-1.073h-4.47c-.454 0-.723.346-.723.668 0 .703 1.024.865 1.13 2.843v4.293c0 .94-.164 1.113-.527 1.113-.966 0-3.312-3.63-4.702-7.784-.28-.806-.554-1.132-1.283-1.132H.975c-.811 0-.975.39-.975.827 0 .77.966 4.604 4.494 9.668 2.35 3.457 5.661 5.33 8.673 5.33 1.81 0 2.031-.416 2.031-1.131 0-3.303-.164-3.615.743-3.615.42 0 1.144.217 2.834 1.884 1.932 1.977 2.25 2.862 3.33 2.862h2.843c.81 0 1.221-.416.985-1.236-.54-1.727-4.194-5.277-4.358-5.515z" fill="#fff"/></g><defs><clipPath id="clip0"><path fill="#fff" d="M0 0h26v27.13H0z"/></clipPath></defs></svg>