<svg width="24" height="24" viewBox="0 0 24 24" fill="none" >
<path d="M21.7794 12.1505C21.5314 11.073 20.65 10.2781 19.5892 10.1598C17.0777 9.87927 14.5344 9.87795 12.0036 9.87927C9.4717 9.87795 6.92897 9.87927 4.41666 10.1598C3.35637 10.2784 2.47553 11.0732 2.2278 12.1505C1.87472 13.6848 1.87048 15.3596 1.87048 16.9395C1.87048 18.5193 1.87048 20.1939 2.22356 21.7283C2.4713 22.8055 3.35214 23.6003 4.41296 23.7189C6.92473 23.9997 9.46747 24.0008 11.9991 23.9997C14.531 24.001 17.0732 23.9997 19.5858 23.7189C20.646 23.6003 21.5274 22.8055 21.7752 21.7283C22.128 20.1939 22.1298 18.5193 22.1298 16.9395C22.1296 15.3594 22.1322 13.6848 21.7794 12.1505ZM7.64915 13.3396H6.18285V21.1312H4.82082V13.3396H3.38125V12.0634H7.64915V13.3396ZM11.3485 21.1314H10.1233V20.3943C9.6366 20.9522 9.17447 21.2243 8.72426 21.2243C8.32963 21.2243 8.05807 21.0645 7.93553 20.7222C7.86883 20.5179 7.82754 20.1945 7.82754 19.7175V14.3748H9.05167V19.3494C9.05167 19.6363 9.05167 19.7853 9.06278 19.8255C9.09216 20.0156 9.18506 20.1119 9.34916 20.1119C9.59478 20.1119 9.85152 19.9227 10.1231 19.5386V14.3748H11.3483L11.3485 21.1314ZM15.9997 19.1035C15.9997 19.7284 15.9576 20.1786 15.8758 20.465C15.7122 20.9676 15.3848 21.2243 14.8978 21.2243C14.4622 21.2243 14.0419 20.9824 13.6324 20.4769V21.1317H12.4083V12.0634H13.6324V15.0248C14.0278 14.5381 14.4476 14.2919 14.8978 14.2919C15.3848 14.2919 15.7125 14.5484 15.8758 15.0542C15.9581 15.326 15.9997 15.7728 15.9997 16.4125V19.1035ZM20.6201 17.9762H18.1716V19.1739C18.1716 19.7993 18.3762 20.1116 18.797 20.1116C19.0985 20.1116 19.274 19.9478 19.3438 19.6207C19.3552 19.5542 19.3714 19.2821 19.3714 18.7912H20.6204V18.9698C20.6204 19.3644 20.6053 19.6363 20.5942 19.7586C20.5531 20.0296 20.4568 20.2755 20.3083 20.492C19.9693 20.9827 19.4669 21.2246 18.8275 21.2246C18.1869 21.2246 17.6994 20.9941 17.3455 20.5327C17.0859 20.1945 16.9525 19.6619 16.9525 18.9439V16.5774C16.9525 15.8551 17.0708 15.3268 17.331 14.9854C17.6846 14.523 18.1719 14.2927 18.7973 14.2927C19.4116 14.2927 19.8986 14.523 20.2416 14.9854C20.4981 15.3268 20.6206 15.8551 20.6206 16.5774V17.9762H20.6201Z" />
<path d="M18.7862 15.3943C18.377 15.3943 18.1719 15.7069 18.1719 16.3316V16.9567H19.396V16.3316C19.3957 15.7069 19.1911 15.3943 18.7862 15.3943Z" />
<path d="M14.2428 15.3943C14.0411 15.3943 13.8368 15.4896 13.6322 15.6921V19.8102C13.8365 20.0151 14.0411 20.1119 14.2428 20.1119C14.5959 20.1119 14.7753 19.8102 14.7753 19.2001V16.3162C14.7753 15.7069 14.5959 15.3943 14.2428 15.3943Z" />
<path d="M14.9267 9.25657C15.3779 9.25657 15.8475 8.98236 16.34 8.41807V9.16287H17.5774V2.3345H16.34V7.55338C16.0658 7.94086 15.8059 8.13249 15.5585 8.13249C15.3928 8.13249 15.2954 8.03456 15.2684 7.84267C15.2533 7.80217 15.2533 7.65157 15.2533 7.36175V2.3345H14.0199V7.73389C14.0199 8.21613 14.0612 8.54247 14.1295 8.74918C14.2539 9.09511 14.5283 9.25657 14.9267 9.25657Z" fill="white"/>
<path d="M6.3128 5.45179V9.16281H7.68488V5.45179L9.3354 0H7.94797L7.01181 3.59827L6.0378 0H4.59399C4.88328 0.849344 5.18422 1.70292 5.47351 2.55306C5.91367 3.83092 6.1884 4.79434 6.3128 5.45179Z" />
<path d="M11.1744 9.25644C11.7943 9.25644 12.276 9.02326 12.6177 8.55744C12.8773 8.21574 13.0017 7.67739 13.0017 6.95165V4.56057C13.0017 3.83059 12.8776 3.297 12.6177 2.95213C12.276 2.48498 11.7945 2.2518 11.1744 2.2518C10.5577 2.2518 10.0763 2.48498 9.73378 2.95213C9.47096 3.297 9.34656 3.83059 9.34656 4.56057V6.95165C9.34656 7.67739 9.47096 8.21574 9.73378 8.55744C10.076 9.02326 10.5577 9.25644 11.1744 9.25644ZM10.5839 4.31257C10.5839 3.68078 10.7755 3.36582 11.1744 3.36582C11.5733 3.36582 11.7644 3.68052 11.7644 4.31257V7.18483C11.7644 7.81661 11.5733 8.13263 11.1744 8.13263C10.7755 8.13263 10.5839 7.81661 10.5839 7.18483V4.31257Z" >
</svg>
