<svg width="26" height="26" viewBox="0 0 26 26" fill="none"><path d="M13.004 6.324a6.67 6.67 0 00-6.67 6.672 6.67 6.67 0 006.67 6.67 6.67 6.67 0 006.671-6.67 6.67 6.67 0 00-6.67-6.672zm0 11.002a4.329 4.329 0 01-4.33-4.33 4.33 4.33 0 118.66 0 4.328 4.328 0 01-4.33 4.33z"/><path d="M18.36.083c-2.393-.111-8.318-.106-10.712 0-2.104.099-3.96.607-5.455 2.103-2.5 2.5-2.181 5.87-2.181 10.81 0 5.058-.282 8.349 2.18 10.811 2.51 2.51 5.929 2.181 10.811 2.181 5.01 0 6.738.003 8.51-.682 2.408-.935 4.226-3.088 4.403-6.954.113-2.393.107-8.317 0-10.711C25.702 3.077 23.253.309 18.36.083zm3.785 22.07c-1.639 1.64-3.913 1.493-9.173 1.493-5.417 0-7.59.08-9.174-1.51-1.825-1.816-1.495-4.733-1.495-9.157 0-5.985-.614-10.296 5.393-10.603 1.38-.049 1.786-.065 5.26-.065l.05.032c5.772 0 10.302-.604 10.574 5.402.061 1.37.076 1.782.076 5.25-.002 5.354.1 7.54-1.51 9.158z"/><path d="M19.94 7.62a1.559 1.559 0 100-3.118 1.559 1.559 0 000 3.118z"/></svg>