<svg width="29" height="28" viewBox="0 0 29 28" fill="none"><path d="M26.017 24.204L24.414 6.15a.772.772 0 00-.767-.705h-3.298A5.536 5.536 0 0014.818 0a5.536 5.536 0 00-5.532 5.445H5.988c-.4 0-.733.304-.767.705L3.617 24.204c0 .023-.005.046-.005.068C3.612 26.328 5.496 28 7.815 28H21.82c2.32 0 4.203-1.672 4.203-3.728 0-.022 0-.045-.006-.068zm-11.2-22.658a3.99 3.99 0 013.986 3.9h-7.97a3.99 3.99 0 013.985-3.9zm7.003 24.908H7.815c-1.455 0-2.634-.962-2.657-2.147l1.534-17.31H9.28v2.348c0 .43.344.773.774.773a.77.77 0 00.772-.773V6.997h7.977v2.348c0 .43.343.773.773.773a.77.77 0 00.773-.773V6.997h2.588l1.54 17.31c-.023 1.185-1.208 2.147-2.657 2.147z"/></svg>