<svg width="25" height="26" viewBox="0 0 25 26" fill="none" xmlns="http://www.w3.org/2000/svg"><path fill-rule="evenodd" clip-rule="evenodd" d="M1.667.999C.747.999 0 1.745 0 2.665v21.666c0 .921.746 1.667 1.667 1.667h21.666c.92 0 1.667-.746 1.667-1.667V2.665C25 1.745 24.253 1 23.333 1H1.667zm21.666 2.333H4v18.666h19.333V3.332z" fill="#3F3F3F"/><path d="M21.338.999H3.662A3.666 3.666 0 000 4.66v17.675a3.666 3.666 0 003.662 3.662h17.676A3.666 3.666 0 0025 22.336V4.661A3.666 3.666 0 0021.338.999zm-8.79 19.042a6.599 6.599 0 01-6.591-6.591 6.599 6.599 0 016.592-6.592 6.599 6.599 0 016.591 6.592 6.599 6.599 0 01-6.591 6.591zm7.325-11.718a2.2 2.2 0 01-2.197-2.198 2.2 2.2 0 012.197-2.197 2.2 2.2 0 012.197 2.197 2.2 2.2 0 01-2.197 2.198z" fill="#3F3F3F"/><path d="M19.873 5.393a.733.733 0 100 1.466.733.733 0 000-1.466zm-7.324 2.93a5.133 5.133 0 00-5.127 5.127c0 2.826 2.3 5.126 5.127 5.126 2.826 0 5.127-2.3 5.127-5.127 0-2.826-2.3-5.126-5.127-5.126z" fill="#3F3F3F"/></svg>