<svg width="50" height="50" viewBox="0 0 50 50" fill="none" xmlns="http://www.w3.org/2000/svg"><g clip-path="url(#clip0)"><path d="M28.736 37.48a9.167 9.167 0 008.764-9.147.833.833 0 00-.833-.833 9.167 9.167 0 00-9.15 8.824 3.287 3.287 0 01-1.684 1.065v-9.132a4.933 4.933 0 002.903-1.61A9.167 9.167 0 0037.5 17.5a.833.833 0 00-.833-.834 9.167 9.167 0 00-9.15 8.825 3.286 3.286 0 01-1.684 1.065v-8.904c4.65-4.91 4.542-12.63-.244-17.408a.833.833 0 00-1.178 0c-4.786 4.778-4.894 12.498-.244 17.408v8.904a3.287 3.287 0 01-1.684-1.065 9.167 9.167 0 00-9.15-8.825.833.833 0 00-.833.834 9.167 9.167 0 008.764 9.147 4.933 4.933 0 002.903 1.61v9.132a3.287 3.287 0 01-1.684-1.065 9.167 9.167 0 00-9.15-8.824.833.833 0 00-.833.833 9.167 9.167 0 008.764 9.147 4.934 4.934 0 002.903 1.61v9.132a3.287 3.287 0 01-1.684-1.065 9.167 9.167 0 00-9.15-8.824.833.833 0 00-.833.834 9.167 9.167 0 008.764 9.146 4.98 4.98 0 007.472 0 9.167 9.167 0 008.764-9.146.833.833 0 00-.833-.834 9.167 9.167 0 00-9.15 8.825 3.287 3.287 0 01-1.684 1.064V39.09a4.933 4.933 0 002.903-1.61zm7.046-8.262a7.515 7.515 0 01-6.564 6.564 7.515 7.515 0 016.564-6.564zm0-10.833a7.515 7.515 0 01-6.564 6.563 7.515 7.515 0 016.564-6.563zm-21.564 0a7.515 7.515 0 016.564 6.563 7.515 7.515 0 01-6.564-6.563zm0 10.833a7.515 7.515 0 016.564 6.564 7.515 7.515 0 01-6.564-6.564zm0 10.834a7.515 7.515 0 016.564 6.563 7.515 7.515 0 01-6.564-6.563zm21.564 0a7.515 7.515 0 01-6.564 6.563 7.515 7.515 0 016.564-6.563zM25 16.106A10.833 10.833 0 0125 2.06a10.833 10.833 0 010 14.046z" fill="#73877B"/></g><defs><clipPath id="clip0"><path fill="#fff" d="M0 0h50v50H0z"/></clipPath></defs></svg>