<svg width="50" height="50" viewBox="0 0 50 50" fill="none" xmlns="http://www.w3.org/2000/svg"><path d="M22.768 23.214a3.129 3.129 0 00-3.125 3.125 3.129 3.129 0 003.125 3.126 3.129 3.129 0 003.125-3.126 3.129 3.129 0 00-3.125-3.125zm0 4.465c-.739 0-1.34-.601-1.34-1.34 0-.738.601-1.34 1.34-1.34a1.34 1.34 0 010 2.679z" fill="#73877B"/><path d="M42.857 37.5a6.218 6.218 0 00-3.928 1.395l-6.291-5.723a8.86 8.86 0 001.29-4.6c0-4.623-3.53-8.434-8.035-8.884v-7.26c3.023-.435 5.357-3.035 5.357-6.178A6.257 6.257 0 0025 0a6.257 6.257 0 00-6.25 6.25c0 3.142 2.333 5.743 5.357 6.179v7.26c-4.506.449-8.036 4.26-8.036 8.883 0 1.683.477 3.254 1.29 4.599l-6.238 5.765a6.22 6.22 0 00-3.98-1.436 6.257 6.257 0 00-6.25 6.25A6.257 6.257 0 007.143 50a6.257 6.257 0 006.25-6.25 6.215 6.215 0 00-1.07-3.492l6.116-5.651a8.897 8.897 0 006.56 2.893 8.897 8.897 0 006.562-2.893l6.154 5.599a6.212 6.212 0 00-1.108 3.544 6.257 6.257 0 006.25 6.25 6.257 6.257 0 006.25-6.25 6.257 6.257 0 00-6.25-6.25zM7.143 48.214a4.47 4.47 0 01-4.465-4.464 4.47 4.47 0 014.465-4.465 4.47 4.47 0 014.464 4.465 4.47 4.47 0 01-4.464 4.464zM20.536 6.25A4.47 4.47 0 0125 1.786a4.47 4.47 0 014.464 4.464A4.47 4.47 0 0125 10.714a4.47 4.47 0 01-4.464-4.464zM25 35.714c-3.939 0-7.143-3.204-7.143-7.142 0-3.939 3.205-7.143 7.143-7.143 3.938 0 7.143 3.204 7.143 7.143 0 3.938-3.205 7.142-7.143 7.142zm17.857 12.5a4.47 4.47 0 01-4.464-4.464c0-1.214.49-2.312 1.278-3.118l.044-.048a4.448 4.448 0 013.142-1.299 4.47 4.47 0 014.465 4.465 4.47 4.47 0 01-4.465 4.464z" fill="#73877B"/><path d="M42.857 40.179a3.575 3.575 0 00-3.571 3.571.893.893 0 001.785 0c0-.985.801-1.786 1.786-1.786a.893.893 0 000-1.785zm-35.714 0A3.575 3.575 0 003.57 43.75a.893.893 0 001.786 0c0-.985.8-1.786 1.786-1.786a.893.893 0 000-1.785zm18.75-36.608c0-.493-.4-.892-.893-.892a3.575 3.575 0 00-3.572 3.57.893.893 0 001.786 0c0-.984.8-1.785 1.786-1.785.493 0 .893-.4.893-.893z" fill="#73877B"/></svg>