<svg width="50" height="50" viewBox="0 0 50 50" fill="none" xmlns="http://www.w3.org/2000/svg"><g clip-path="url(#clip0)"><path d="M47.499 48.515h-7.373l1.657-4.918c.678-2.01.892-4.185.618-6.288a14.105 14.105 0 00-2.204-5.922l-.286-.434 1.208-3.584a9.53 9.53 0 00-1.084-8.347l-.124-.188 1.872-5.554c.678-2.01.892-4.185.618-6.288a14.108 14.108 0 00-2.204-5.922l-.486-.736a.743.743 0 00-1.323.171L36.4 6.403c-.316.938-.533 1.91-.645 2.892a.742.742 0 101.476.168c.1-.877.294-1.747.576-2.585l1.496-4.437a12.458 12.458 0 011.073 10.365l-1.496 4.436a12.596 12.596 0 01-1.673-5.163.743.743 0 00-1.479.142 14.08 14.08 0 002.258 6.392l.286.434-1.208 3.584a9.53 9.53 0 001.084 8.347l.124.188L36.4 36.72a14.11 14.11 0 00-.618 6.289 14.116 14.116 0 001.942 5.506h-6.802l1.658-4.918c.677-2.01.89-4.185.618-6.288a14.11 14.11 0 00-2.204-5.922l-.287-.434 1.248-3.7a9.792 9.792 0 00-1.114-8.576l-.134-.202 1.208-3.584a9.531 9.531 0 00-1.084-8.347l-.324-.49a.742.742 0 00-1.323.172l-1.324 3.927a9.53 9.53 0 001.084 8.347l.124.188-1.247 3.7a9.79 9.79 0 001.114 8.576l.133.202-1.872 5.554a14.11 14.11 0 00-.618 6.289 14.116 14.116 0 001.941 5.506h-4.863l1.657-4.918a14.11 14.11 0 00.618-6.288 14.108 14.108 0 00-2.204-5.922l-.286-.434 1.872-5.554a14.11 14.11 0 00.618-6.288 14.109 14.109 0 00-2.204-5.922l-.287-.434 1.208-3.584A9.53 9.53 0 0023.564.824l-.323-.49a.743.743 0 00-1.324.171l-1.324 3.928a9.53 9.53 0 001.084 8.347l.124.188-1.872 5.554a14.106 14.106 0 00-.618 6.289 14.11 14.11 0 002.204 5.921l.286.434-1.872 5.554a14.106 14.106 0 00-.618 6.289 14.113 14.113 0 001.942 5.506H10.849l1.658-4.918a14.01 14.01 0 00.733-4.296.743.743 0 00-.732-.752h-.01a.743.743 0 00-.743.733 12.522 12.522 0 01-.656 3.84L9.603 47.56a12.458 12.458 0 01-1.072-10.366l1.495-4.436a12.478 12.478 0 011.498 3.954.743.743 0 001.458-.284 13.959 13.959 0 00-2.062-5.041l-.286-.434 1.248-3.7a9.792 9.792 0 00-1.114-8.576l-.334-.505a.743.743 0 00-1.323.172l-1.363 4.044a9.79 9.79 0 001.114 8.575l.133.203-1.872 5.554a14.108 14.108 0 00-.618 6.288 14.118 14.118 0 001.942 5.507H2.5A.743.743 0 102.5 50h44.998a.743.743 0 100-1.485zM9.155 22.863l.856-2.538a8.308 8.308 0 01.463 6.454l-.855 2.538a8.307 8.307 0 01-.464-6.454zM22.001 4.907l.815-2.417a8.047 8.047 0 01.426 6.207l-.815 2.417A8.047 8.047 0 0122 4.907zm-.664 14.09l1.495-4.438a12.456 12.456 0 011.074 10.366l-1.496 4.437a12.458 12.458 0 01-1.073-10.366zm0 18.197l1.496-4.437a12.458 12.458 0 011.073 10.366L22.41 47.56a12.456 12.456 0 01-1.073-10.366zm7.93-26.566l.815-2.417a8.047 8.047 0 01.426 6.206l-.815 2.417a8.046 8.046 0 01-.426-6.206zm-.039 12.235l.856-2.538a8.307 8.307 0 01.463 6.454l-.855 2.538a8.308 8.308 0 01-.464-6.454zm-.625 14.331l1.496-4.437a12.457 12.457 0 011.073 10.366l-1.496 4.437a12.456 12.456 0 01-1.073-10.366zm9.868-14.089l.815-2.416a8.047 8.047 0 01.426 6.206l-.815 2.417a8.046 8.046 0 01-.426-6.207zm-.664 14.09l1.496-4.438a12.456 12.456 0 011.073 10.366L38.88 47.56a12.459 12.459 0 01-1.073-10.366z" fill="#73877B"/></g><defs><clipPath id="clip0"><path fill="#fff" d="M0 0h50v50H0z"/></clipPath></defs></svg>