<svg width="50" height="50" viewBox="0 0 50 50" fill="none" xmlns="http://www.w3.org/2000/svg"><g clip-path="url(#clip0)"><path d="M48.064 34.5a.742.742 0 00.038-.092c2.962-6.837 2.433-15.22-1.415-21.626 2.054-2.455-.614-5.972-3.532-4.611a24.208 24.208 0 00-1.609-1.501c1.095-2.977-2.56-5.419-4.835-3.195-6.616-3.34-14.844-3.298-21.423.113-2.34-2.48-6.27.18-4.854 3.291a24.17 24.17 0 00-2.287 2.287c-.612.7.496 1.66 1.103.964a22.704 22.704 0 012.127-2.128c1.458 1.051 3.573.516 4.373-1.09 2.64.76 5.16 1.85 7.51 3.25a3.016 3.016 0 00.221 2.156 33.713 33.713 0 00-5.187 5.63c-1.396-.421-2.934.285-3.541 1.607a45.707 45.707 0 00-9.198.988 2.988 2.988 0 00-1.166-1.189 22.435 22.435 0 012.687-6.288c.485-.779-.738-1.588-1.244-.774a23.895 23.895 0 00-2.859 6.685c-3.51.06-4.1 4.916-.757 5.85-.05 6.911 2.939 13.631 8.12 18.209-1.08 2.92 2.429 5.328 4.745 3.269 6.759 3.593 15.3 3.594 22.06 0 2.355 2.33 6.128-.272 4.8-3.318a23.994 23.994 0 006.123-8.487zm-.924-1.639a45.965 45.965 0 00-6.618-5.448 3.003 3.003 0 00-.742-3.019 45.791 45.791 0 004.659-10.578 2.93 2.93 0 001.045-.189c3.374 5.7 3.991 13.047 1.656 19.234zm-33.719 8.284a32.143 32.143 0 013.144-17.513c1.664.52 3.462-.575 3.785-2.283a43.873 43.873 0 0114.486 4.417 3.011 3.011 0 00.485 2.505 44.235 44.235 0 01-19.719 14.241 2.961 2.961 0 00-2.18-1.367zm22.787-14.637c0-.83.67-1.506 1.495-1.506 1.983.083 1.982 2.93 0 3.012a1.502 1.502 0 01-1.495-1.506zm9.732-15.663c0 .83-.67 1.506-1.495 1.506-1.983-.083-1.982-2.93 0-3.012.825 0 1.495.675 1.495 1.506zm-3.904-1.723c-1.013 1.423-.543 3.48.984 4.326a44.336 44.336 0 01-4.504 10.204 3.007 3.007 0 00-1.262-.081 33.988 33.988 0 00-8.512-11.252 3.013 3.013 0 00.221-2.156 31.894 31.894 0 017.221-3.166c.843 1.626 3.102 2.086 4.505.868.465.4.915.82 1.346 1.257zm-17.42 1.836c0-.83.671-1.506 1.496-1.506 1.983.083 1.982 2.93 0 3.012a1.502 1.502 0 01-1.495-1.506zM38.79 4.082c.824 0 1.495.676 1.495 1.506-.082 1.998-2.908 1.997-2.99 0 0-.83.67-1.506 1.495-1.506zM13.1 7.094a1.502 1.502 0 01-1.495-1.506c.083-1.998 2.909-1.997 2.99 0 0 .83-.67 1.506-1.495 1.506zm2.958-1.618a2.973 2.973 0 00-.082-.593c6.134-3.172 13.797-3.227 19.978-.148-.08.266-.123.547-.124.838a33.369 33.369 0 00-7.595 3.318c-1.144-1.183-3.103-1.184-4.247 0a33.368 33.368 0 00-7.93-3.415zm8.393 7.94a2.97 2.97 0 003.32.001 32.515 32.515 0 018.135 10.732c-.13.1-.252.211-.364.331a45.328 45.328 0 00-15.29-4.62 2.977 2.977 0 00-.7-1.147 32.234 32.234 0 014.9-5.296zm-7.009 5.872c.825 0 1.495.676 1.495 1.506-.082 1.998-2.908 1.997-2.99 0 0-.83.671-1.506 1.495-1.506zm-15.99 2.66c0-.83.67-1.506 1.495-1.506 1.983.082 1.982 2.929 0 3.011a1.502 1.502 0 01-1.495-1.505zm2.229 2.878s2.226-.485 2.226-2.86c0 0 5.71-.912 8.584-.944.054.71.357 1.35.822 1.834a33.606 33.606 0 00-3.344 18.497 2.965 2.965 0 00-.78.48C6.407 37.55 3.68 30.372 3.68 24.825zm9.42 20.778a1.502 1.502 0 01-1.496-1.506c0-.83.671-1.506 1.495-1.506.814 0 1.495.705 1.495 1.506 0 .83-.67 1.506-1.495 1.506zm13.01 1.942c-3.556 0-7.073-.852-10.216-2.469.128-.366.184-.782.16-1.17A45.696 45.696 0 0036.453 29.2c.437.206.923.3 1.405.274.325 1.209.583 2.441.765 3.674.14.944 1.59.733 1.45-.214a33.832 33.832 0 00-.816-3.9c.175-.11.338-.236.487-.378a44.489 44.489 0 016.79 5.674 22.535 22.535 0 01-5.514 7.514 2.955 2.955 0 00-.775-.418 34.08 34.08 0 00.185-4.098c-.015-.957-1.48-.935-1.465.023.02 1.307-.04 2.63-.18 3.939-1.728.275-2.858 2.067-2.382 3.746a22.375 22.375 0 01-10.292 2.509zm13.14-1.815a1.502 1.502 0 01-1.494-1.506c.082-1.997 2.907-1.997 2.99 0 0 .83-.671 1.506-1.496 1.506z" fill="#73877B"/></g><defs><clipPath id="clip0"><path fill="#fff" d="M0 0h50v50H0z"/></clipPath></defs></svg>