<svg width="18" height="17" viewBox="0 0 18 17"><path d="M15.805 15.179c.382 0 .713-.126.995-.376l-4.817-4.816-.333.24c-.36.265-.653.472-.878.62a5.41 5.41 0 01-.896.456 2.731 2.731 0 01-1.044.233h-.019c-.322 0-.67-.078-1.043-.233a5.394 5.394 0 01-.897-.455 22.348 22.348 0 01-.877-.621c-.1-.074-.212-.155-.333-.241L.846 14.803c.281.25.613.376.995.376h13.964zM1.281 6.954a5.03 5.03 0 01-.958-.826v7.328l4.245-4.245c-.85-.593-1.944-1.344-3.287-2.257zm15.093 0c-1.292.874-2.39 1.627-3.295 2.259l4.244 4.244V6.128a5.233 5.233 0 01-.949.826z"/><path d="M15.805 1.822H1.84c-.488 0-.862.164-1.124.493-.263.329-.394.74-.394 1.233 0 .398.174.83.522 1.295.347.465.717.83 1.11 1.096.214.151.863.602 1.944 1.351a624.58 624.58 0 012.486 1.732l.141.1.262.19c.206.148.376.268.512.36.136.092.3.194.494.308.193.114.374.2.545.256.171.057.33.086.474.086h.02c.145 0 .303-.029.474-.086a2.89 2.89 0 00.545-.256c.193-.114.357-.217.494-.308.136-.092.306-.212.512-.36a60.16 60.16 0 01.403-.29l.96-.667 3.48-2.416a4.513 4.513 0 001.157-1.167c.31-.455.465-.933.465-1.433 0-.417-.15-.774-.45-1.072a1.467 1.467 0 00-1.068-.445z"/></svg>