<svg width="60" height="60" viewBox="0 0 60 60" fill="none" xmlns="http://www.w3.org/2000/svg"><circle cx="30" cy="30" r="30" fill="#fff"/><path d="M46.97 13.03A23.843 23.843 0 0030 6a23.843 23.843 0 00-16.97 7.03A23.844 23.844 0 006 30a.703.703 0 101.406 0c0-6.035 2.35-11.709 6.618-15.976A22.447 22.447 0 0130 7.406c6.035 0 11.709 2.35 15.976 6.618A22.446 22.446 0 0152.593 30c0 6.035-2.35 11.709-6.617 15.976A22.447 22.447 0 0130 52.594a22.575 22.575 0 01-14.87-5.584 22.578 22.578 0 01-7.497-13.804.703.703 0 00-1.392.198 23.984 23.984 0 007.962 14.664A23.98 23.98 0 0030 54c6.41 0 12.438-2.496 16.97-7.03A23.844 23.844 0 0054 30c0-6.41-2.496-12.438-7.03-16.97z" fill="#FFAABF"/><path d="M24.527 20.712a.62.62 0 01.665.026l4.745 3.169a.68.68 0 00.959-.212.728.728 0 00-.205-.989l-4.746-3.169a1.983 1.983 0 00-2.081-.081 2.112 2.112 0 00-1.064 1.847v18.594c0 .771.408 1.479 1.064 1.847a1.988 1.988 0 002.081-.082l13.925-9.297c.582-.39.93-1.049.93-1.765s-.348-1.376-.93-1.765l-6.204-4.143a.68.68 0 00-.959.212.729.729 0 00.205.99l6.204 4.142c.19.126.298.331.298.564a.667.667 0 01-.298.564l-13.924 9.298a.622.622 0 01-.666.026.66.66 0 01-.34-.59V21.302a.66.66 0 01.34-.59z" fill="#FFAABF"/></svg>