<svg width="23" height="14" viewBox="0 0 23 14"><path fill-rule="evenodd" clip-rule="evenodd" d="M12.696 13.136s.389-.045.588-.264c.183-.2.176-.579.176-.579s-.024-1.767.779-2.028c.79-.257 1.807 1.709 2.884 2.465.815.572 1.433.447 1.433.447l2.88-.041s1.507-.095.793-1.306c-.06-.1-.417-.897-2.142-2.534-1.806-1.714-1.564-1.436.611-4.401 1.325-1.806 1.854-2.908 1.689-3.38-.157-.45-1.132-.33-1.132-.33l-3.242.02s-.24-.033-.419.076c-.174.107-.287.356-.287.356s-.513 1.396-1.197 2.585c-1.444 2.506-2.021 2.639-2.257 2.484-.55-.364-.413-1.459-.413-2.236 0-2.43.361-3.443-.701-3.705-.352-.087-.612-.144-1.514-.154C10.068.6 9.09.615 8.535.893c-.37.184-.654.596-.48.62.214.029.699.133.956.492.333.462.321 1.5.321 1.5s.191 2.86-.446 3.215c-.437.243-1.036-.254-2.324-2.528-.659-1.165-1.157-2.453-1.157-2.453s-.096-.24-.268-.37a1.312 1.312 0 00-.498-.205l-3.08.02s-.464.014-.633.22c-.151.182-.012.56-.012.56s2.412 5.772 5.144 8.68c2.505 2.666 5.349 2.492 5.349 2.492h1.289z"/></svg>