<svg viewBox="0 0 40 40" xmlns="http://www.w3.org/2000/svg" xmlns:xlink="http://www.w3.org/1999/xlink"><style>:root&gt;svg{display:none}:root&gt;svg:target{display:block}</style><svg fill="none" viewBox="0 0 34 34" id="css--close_icon" xmlns="http://www.w3.org/2000/svg"><circle cx="17" cy="17" r="17" fill="#EC1E3C"/><path fill-rule="evenodd" clip-rule="evenodd" d="M15.574 17.016l-3.479-3.478a.199.199 0 010-.34l1.103-1.103a.199.199 0 01.34 0l3.478 3.479 3.478-3.479c.085-.127.212-.127.297 0l1.145 1.103a.258.258 0 010 .34l-3.478 3.478 3.478 3.478a.205.205 0 010 .297l-1.145 1.145a.205.205 0 01-.297 0l-3.478-3.478-3.478 3.478a.258.258 0 01-.34 0l-1.103-1.145c-.127-.085-.127-.212 0-.297l3.479-3.478z" fill="#fff"/></svg><svg fill="none" viewBox="0 0 40 40" id="css--icon-advantage" xmlns="http://www.w3.org/2000/svg"><circle cx="20" cy="20" r="15.088" fill="#EC1E3C"/><circle opacity=".2" cx="20" cy="20" r="20" fill="#EC1E3C"/><path d="M20 24v-4m0 0v-4m0 4h4m-4 0h-4" stroke="#fff" stroke-linecap="round"/></svg><svg fill="none" viewBox="0 0 13 13" id="css--icon-phone" xmlns="http://www.w3.org/2000/svg"><path d="M4.419 6.313a4.942 4.942 0 002.288 2.278.465.465 0 00.459-.034l1.466-.979a.469.469 0 01.445-.04l2.745 1.176a.467.467 0 01.28.486 2.813 2.813 0 01-2.79 2.456 7.969 7.969 0 01-7.968-7.969A2.813 2.813 0 013.8.897a.467.467 0 01.486.281l1.177 2.747a.469.469 0 01-.038.442L4.45 5.856a.464.464 0 00-.031.457v0z" stroke="#fff" stroke-linecap="round" stroke-linejoin="round"/></svg></svg>