<svg width="19" height="19" viewBox="0 0 19 19" fill="none"><path d="M10.213 8.313c-.475-.12-.95-.357-1.307-.713-.356-.119-.475-.475-.475-.712 0-.238.119-.594.357-.713.356-.237.712-.475 1.068-.356.713 0 1.306.356 1.663.831l1.069-1.425c-.357-.356-.713-.594-1.07-.831-.356-.238-.83-.357-1.306-.357V2.375H8.787v1.662c-.593.12-1.187.476-1.662.95-.475.594-.831 1.307-.713 2.02 0 .712.238 1.424.713 1.9.594.593 1.425.95 2.137 1.306.357.118.832.356 1.188.593.238.238.356.594.356.95 0 .357-.118.713-.356 1.069-.356.356-.831.475-1.188.475-.475 0-1.068-.119-1.425-.475a3.615 3.615 0 01-.95-.95L5.7 13.181a5.6 5.6 0 001.188 1.188c.593.356 1.306.712 2.018.712v1.544h1.306v-1.781c.713-.119 1.307-.475 1.782-.95.594-.594.95-1.544.95-2.375 0-.713-.238-1.544-.832-2.019a4.645 4.645 0 00-1.9-1.188zM9.5 0C4.275 0 0 4.275 0 9.5S4.275 19 9.5 19 19 14.725 19 9.5 14.725 0 9.5 0zm0 17.694c-4.513 0-8.194-3.681-8.194-8.194 0-4.513 3.681-8.194 8.194-8.194 4.512 0 8.194 3.681 8.194 8.194 0 4.512-3.681 8.194-8.194 8.194z"/></svg>