<svg width="16" height="17" viewBox="0 0 16 17" fill="none"><path d="M4.836 12.495l.482.282a5.333 5.333 0 10-1.929-1.929l.282.483-.435 1.6 1.6-.436zm-3.5 2.338l.902-3.312a6.667 6.667 0 112.41 2.409l-3.312.903zm4.258-9.795c.09-.007.18-.007.269-.003l.108.01c.106.013.223.078.262.167.199.45.392.905.579 1.36.04.101.016.231-.062.358a2.92 2.92 0 01-.176.248 6.456 6.456 0 01-.237.274s-.066.079-.04.177a.59.59 0 00.067.136l.04.064c.17.284.4.573.68.845.08.077.158.157.242.23a4 4 0 001.046.667l.004.002.168.073a.958.958 0 00.127.044.233.233 0 00.245-.087c.482-.584.526-.622.53-.622a.321.321 0 01.252-.084c.04.003.08.01.118.027.354.162.933.415.933.415l.388.174c.066.03.125.105.127.176a1.27 1.27 0 01-.008.249c-.022.173-.074.38-.126.489a.77.77 0 01-.14.2c-.067.072-.14.136-.22.193l-.083.06a3.344 3.344 0 01-.255.147 1.326 1.326 0 01-.556.153c-.123.007-.246.016-.37.01a60.5 60.5 0 01-.38-.059 6.299 6.299 0 01-2.56-1.364c-.15-.132-.29-.275-.432-.417-.593-.59-1.041-1.227-1.313-1.828a2.313 2.313 0 01-.22-.943 1.82 1.82 0 01.375-1.12c.049-.062.095-.128.174-.203a.849.849 0 01.196-.152.64.64 0 01.248-.067z"/></svg>