<svg width="16" height="19" viewBox="0 0 16 19" fill="none" xmlns="http://www.w3.org/2000/svg"><path d="M8.235 10.542a3.33 3.33 0 01-1.841-.555 3.299 3.299 0 01-1.221-1.479 3.276 3.276 0 01.718-3.59 3.334 3.334 0 013.612-.714 3.31 3.31 0 011.488 1.213 3.28 3.28 0 01-.413 4.159 3.33 3.33 0 01-2.343.966zm0-5.271a2 2 0 00-1.105.333 1.965 1.965 0 00-.301 3.041 1.993 1.993 0 002.167.429 1.99 1.99 0 00.893-.728A1.968 1.968 0 009.64 5.85a1.997 1.997 0 00-1.406-.58z" fill="#CFA55B"/><path d="M8.235 18.448l-5.592-6.555a23.401 23.401 0 01-.231-.297 7.146 7.146 0 01-1.47-4.348c0-1.923.77-3.766 2.137-5.125A7.315 7.315 0 018.235 0c1.934 0 3.79.764 5.157 2.123a7.225 7.225 0 012.136 5.125 7.142 7.142 0 01-1.469 4.346v.002s-.2.26-.23.295l-5.594 6.557zM3.47 10.802l.19.247 4.575 5.362 4.581-5.37c.03-.036.185-.24.185-.24a5.84 5.84 0 001.2-3.553 5.911 5.911 0 00-1.747-4.193 5.985 5.985 0 00-4.219-1.737c-1.582 0-3.1.624-4.219 1.737A5.911 5.911 0 002.27 7.248a5.843 5.843 0 001.202 3.554H3.47z" fill="#CFA55B"/></svg>