<svg width="16" height="16" viewBox="0 0 16 16" fill="none"><path d="M8 6a2 2 0 100 4 2 2 0 000-4zm0-1.333a3.333 3.333 0 110 6.667 3.333 3.333 0 010-6.667zm4.334-.167a.833.833 0 11-1.667 0 .833.833 0 011.667 0zM8 2.667c-1.65 0-1.918.005-2.686.038-.522.025-.873.095-1.199.222a1.924 1.924 0 00-.72.469 1.92 1.92 0 00-.469.72c-.127.326-.197.676-.22 1.198-.035.736-.04.994-.04 2.686 0 1.65.006 1.919.04 2.686.024.522.094.873.22 1.198.113.29.247.499.468.72.225.224.433.358.72.469.33.127.68.198 1.2.222.736.034.994.039 2.686.039 1.65 0 1.919-.005 2.686-.04.521-.024.873-.094 1.198-.22a1.95 1.95 0 00.72-.468 1.93 1.93 0 00.47-.72c.126-.329.197-.68.22-1.2.035-.736.04-.993.04-2.686 0-1.65-.005-1.918-.04-2.686-.024-.521-.094-.873-.22-1.199a1.94 1.94 0 00-.47-.72 1.922 1.922 0 00-.72-.469c-.326-.127-.677-.197-1.198-.22-.736-.035-.993-.04-2.686-.04zm0-1.333c1.812 0 2.037.006 2.748.04.71.033 1.194.144 1.619.31.44.169.81.398 1.181.768.34.333.601.737.769 1.182.165.424.277.908.31 1.618.031.71.04.937.04 2.748 0 1.812-.007 2.037-.04 2.748-.034.71-.146 1.194-.31 1.619-.167.445-.43.848-.769 1.181a3.278 3.278 0 01-1.181.769c-.425.165-.909.277-1.619.31-.71.031-.936.04-2.748.04-1.811 0-2.037-.007-2.748-.04-.71-.034-1.193-.146-1.618-.31a3.26 3.26 0 01-1.182-.769 3.27 3.27 0 01-.768-1.181c-.166-.425-.277-.909-.31-1.619-.032-.71-.04-.936-.04-2.748 0-1.811.006-2.037.04-2.748.033-.71.144-1.193.31-1.618.166-.446.429-.849.768-1.182a3.257 3.257 0 011.182-.768c.425-.166.908-.277 1.618-.31.71-.032.937-.04 2.748-.04z"/></svg>