<svg width="19" height="16" viewBox="0 0 19 16" fill="none"><path d="M17.855 14.701h-1.231v-7.5c0-.181-.036-.36-.106-.526a1.301 1.301 0 00-.297-.435L10.063.34A1.192 1.192 0 009.235 0c-.307 0-.602.121-.828.34L2.25 6.24a1.353 1.353 0 00-.403.96v7.501H.616a.6.6 0 00-.436.19.667.667 0 00-.18.459.67.67 0 00.18.459.6.6 0 00.436.19h17.24a.6.6 0 00.434-.19.667.667 0 00.18-.459.667.667 0 00-.18-.459.6.6 0 00-.435-.19zm-14.777-7.5L9.235 1.3l6.157 5.9v7.501h-3.694v-3.895c0-.344-.13-.673-.361-.917a1.201 1.201 0 00-.87-.38H8.003c-.327 0-.64.137-.87.38a1.336 1.336 0 00-.362.918V14.7H3.078V7.2zm7.388 7.5H8.004v-3.895h2.462v3.895z"/></svg>