<svg width="19" height="18" viewBox="0 0 19 18" fill="none" xmlns="http://www.w3.org/2000/svg"><path d="M15.564 2.937a8.459 8.459 0 00-6.03-2.5c-4.697 0-8.52 3.823-8.52 8.523 0 1.502.394 2.97 1.14 4.26l-1.21 4.417 4.518-1.185a8.524 8.524 0 004.071 1.038h.003c4.697 0 8.523-3.822 8.523-8.522a8.477 8.477 0 00-2.496-6.03v-.001zM9.536 16.052a7.077 7.077 0 01-3.607-.988l-.26-.155-2.68.702.715-2.613-.167-.269A7.027 7.027 0 012.452 8.96a7.094 7.094 0 017.089-7.085c1.89 0 3.672.74 5.008 2.076a7.045 7.045 0 012.073 5.011c-.004 3.91-3.181 7.089-7.086 7.089zm3.884-5.307c-.211-.108-1.26-.622-1.454-.693-.195-.07-.337-.107-.48.108-.142.212-.551.692-.676.836-.125.141-.248.161-.46.054-.212-.108-.9-.332-1.713-1.058-.633-.564-1.061-1.263-1.186-1.475-.125-.212-.014-.329.094-.433.098-.095.212-.248.32-.373.107-.125.14-.212.211-.356.071-.14.037-.265-.017-.373-.053-.107-.48-1.155-.654-1.582-.171-.417-.35-.36-.48-.367-.126-.006-.266-.006-.407-.006a.786.786 0 00-.568.265c-.194.212-.746.73-.746 1.777 0 1.048.762 2.06.87 2.204.107.14 1.502 2.294 3.638 3.215.507.219.904.35 1.212.45.51.162.974.138 1.34.085.41-.06 1.26-.514 1.439-1.012.179-.498.179-.923.125-1.012-.05-.094-.192-.147-.407-.255z" fill="#fff"/></svg>